<svg class="marks" width="275" height="256" viewBox="0 0 275 256" version="1.1" xmlns="http://www.w3.org/2000/svg" xmlns:xlink="http://www.w3.org/1999/xlink"><rect width="275" height="256" style="fill: #f9f9f9;"></rect><g transform="translate(62,11)"><g class="mark-group role-frame root"><g transform="translate(0,0)"><path class="background" d="M0.5,0.5h200v200h-200Z" style="fill: none; stroke: #ddd;"></path><g><g class="mark-group role-axis"><g transform="translate(0.5,200.5)"><path class="background" d="M0,0h0v0h0Z" style="pointer-events: none; fill: none;"></path><g><g class="mark-rule role-axis-grid" style="pointer-events: none;"><line transform="translate(6,-200)" x2="0" y2="200" style="fill: none; stroke: #ddd; stroke-width: 0.2; opacity: 1;"></line><line transform="translate(22,-200)" x2="0" y2="200" style="fill: none; stroke: #ddd; stroke-width: 0.2; opacity: 1;"></line><line transform="translate(38,-200)" x2="0" y2="200" style="fill: none; stroke: #ddd; stroke-width: 0.2; opacity: 1;"></line><line transform="translate(53,-200)" x2="0" y2="200" style="fill: none; stroke: #ddd; stroke-width: 0.2; opacity: 1;"></line><line transform="translate(69,-200)" x2="0" y2="200" style="fill: none; stroke: #ddd; stroke-width: 0.2; opacity: 1;"></line><line transform="translate(85,-200)" x2="0" y2="200" style="fill: none; stroke: #ddd; stroke-width: 0.2; opacity: 1;"></line><line transform="translate(101,-200)" x2="0" y2="200" style="fill: none; stroke: #ddd; stroke-width: 0.2; opacity: 1;"></line><line transform="translate(117,-200)" x2="0" y2="200" style="fill: none; stroke: #ddd; stroke-width: 0.2; opacity: 1;"></line><line transform="translate(132,-200)" x2="0" y2="200" style="fill: none; stroke: #ddd; stroke-width: 0.2; opacity: 1;"></line><line transform="translate(148,-200)" x2="0" y2="200" style="fill: none; stroke: #ddd; stroke-width: 0.2; opacity: 1;"></line><line transform="translate(164,-200)" x2="0" y2="200" style="fill: none; stroke: #ddd; stroke-width: 0.2; opacity: 1;"></line><line transform="translate(180,-200)" x2="0" y2="200" style="fill: none; stroke: #ddd; stroke-width: 0.2; opacity: 1;"></line><line transform="translate(195,-200)" x2="0" y2="200" style="fill: none; stroke: #ddd; stroke-width: 0.2; opacity: 1;"></line></g></g></g></g><g class="mark-group role-axis"><g transform="translate(0.5,0.5)"><path class="background" d="M0,0h0v0h0Z" style="pointer-events: none; fill: none;"></path><g><g class="mark-rule role-axis-grid" style="pointer-events: none;"><line transform="translate(0,200)" x2="200" y2="0" style="fill: none; stroke: #ddd; stroke-width: 0.2; opacity: 1;"></line><line transform="translate(0,171)" x2="200" y2="0" style="fill: none; stroke: #ddd; stroke-width: 0.2; opacity: 1;"></line><line transform="translate(0,143)" x2="200" y2="0" style="fill: none; stroke: #ddd; stroke-width: 0.2; opacity: 1;"></line><line transform="translate(0,114)" x2="200" y2="0" style="fill: none; stroke: #ddd; stroke-width: 0.2; opacity: 1;"></line><line transform="translate(0,86)" x2="200" y2="0" style="fill: none; stroke: #ddd; stroke-width: 0.2; opacity: 1;"></line><line transform="translate(0,57)" x2="200" y2="0" style="fill: none; stroke: #ddd; stroke-width: 0.2; opacity: 1;"></line><line transform="translate(0,29)" x2="200" y2="0" style="fill: none; stroke: #ddd; stroke-width: 0.2; opacity: 1;"></line><line transform="translate(0,0)" x2="200" y2="0" style="fill: none; stroke: #ddd; stroke-width: 0.2; opacity: 1;"></line></g></g></g></g><g class="mark-rect role-mark marks"><path d="M176,199.99965714285713h24v0.00034285714286852453h-24Z" style="fill: #4c78a8;"></path><path d="M176,199.99937142857144h24v0.00028571428569534874h-24Z" style="fill: #4c78a8;"></path><path d="M176,198.9708h24v1.0285714285714391h-24Z" style="fill: #4c78a8;"></path><path d="M176,198.9690857142857h24v0.0017142857142857792h-24Z" style="fill: #4c78a8;"></path><path d="M176,198.9688h24v0.00028571428572377044h-24Z" style="fill: #4c78a8;"></path><path d="M176,197.93165714285715h24v1.0371428571428396h-24Z" style="fill: #4c78a8;"></path><path d="M176,197.0745142857143h24v0.8571428571428612h-24Z" style="fill: #4c78a8;"></path><path d="M176,196.21737142857143h24v0.8571428571428612h-24Z" style="fill: #4c78a8;"></path><path d="M176,195.36022857142856h24v0.8571428571428612h-24Z" style="fill: #4c78a8;"></path><path d="M176,194.5030857142857h24v0.8571428571428612h-24Z" style="fill: #4c78a8;"></path><path d="M176,193.30308571428571h24v1.1999999999999886h-24Z" style="fill: #4c78a8;"></path><path d="M176,192.30308571428571h24v1h-24Z" style="fill: #4c78a8;"></path><path d="M176,191.10308571428573h24v1.1999999999999886h-24Z" style="fill: #4c78a8;"></path><path d="M176,191.10222857142858h24v0.0008571428571428896h-24Z" style="fill: #4c78a8;"></path><path d="M151,198.71428571428572h24v1.2857142857142776h-24Z" style="fill: #4c78a8;"></path><path d="M151,198.71142857142857h24v0.0028571428571524393h-24Z" style="fill: #4c78a8;"></path><path d="M151,198.71125714285714h24v0.00017142857143426227h-24Z" style="fill: #4c78a8;"></path><path d="M151,197.33982857142857h24v1.3714285714285666h-24Z" style="fill: #4c78a8;"></path><path d="M151,197.11125714285714h24v0.22857142857142776h-24Z" style="fill: #4c78a8;"></path><path d="M151,195.82554285714286h24v1.2857142857142776h-24Z" style="fill: #4c78a8;"></path><path d="M151,194.8826857142857h24v0.9428571428571502h-24Z" style="fill: #4c78a8;"></path><path d="M151,193.51125714285715h24v1.3714285714285666h-24Z" style="fill: #4c78a8;"></path><path d="M151,192.13982857142858h24v1.3714285714285666h-24Z" style="fill: #4c78a8;"></path><path d="M151,191.11125714285714h24v1.0285714285714391h-24Z" style="fill: #4c78a8;"></path><path d="M151,190.0826857142857h24v1.0285714285714391h-24Z" style="fill: #4c78a8;"></path><path d="M151,189.0541142857143h24v1.0285714285714107h-24Z" style="fill: #4c78a8;"></path><path d="M151,189.05382857142857h24v0.00028571428572377044h-24Z" style="fill: #4c78a8;"></path><path d="M151,188.36811428571428h24v0.6857142857142833h-24Z" style="fill: #4c78a8;"></path><path d="M151,188.36685714285716h24v0.0012571428571277465h-24Z" style="fill: #4c78a8;"></path><path d="M151,188.36414285714287h24v0.002714285714290554h-24Z" style="fill: #4c78a8;"></path><path d="M151,188.35562857142858h24v0.008514285714284142h-24Z" style="fill: #4c78a8;"></path><path d="M151,188.3552h24v0.00042857142858565567h-24Z" style="fill: #4c78a8;"></path><path d="M151,187.68377142857142h24v0.6714285714285779h-24Z" style="fill: #4c78a8;"></path><path d="M151,187.01234285714287h24v0.6714285714285495h-24Z" style="fill: #4c78a8;"></path><path d="M151,187.01205714285715h24v0.00028571428572377044h-24Z" style="fill: #4c78a8;"></path><path d="M126,199.99971428571428h24v0.00028571428572377044h-24Z" style="fill: #4c78a8;"></path><path d="M126,199.99914285714286h24v0.0005714285714191192h-24Z" style="fill: #4c78a8;"></path><path d="M126,199.99742857142857h24v0.0017142857142857792h-24Z" style="fill: #4c78a8;"></path><path d="M126,199.9972h24v0.00022857142857901636h-24Z" style="fill: #4c78a8;"></path><path d="M126,199.99437142857144h24v0.0028285714285516406h-24Z" style="fill: #4c78a8;"></path><path d="M126,199.30865714285713h24v0.6857142857143117h-24Z" style="fill: #4c78a8;"></path><path d="M126,198.62294285714285h24v0.6857142857142833h-24Z" style="fill: #4c78a8;"></path><path d="M126,197.93722857142856h24v0.6857142857142833h-24Z" style="fill: #4c78a8;"></path><path d="M126,196.90865714285715h24v1.0285714285714107h-24Z" style="fill: #4c78a8;"></path><path d="M126,196.90852h24v0.00013714285714172547h-24Z" style="fill: #4c78a8;"></path><path d="M126,195.87137714285714h24v1.037142857142868h-24Z" style="fill: #4c78a8;"></path><path d="M126,193.28566285714285h24v0.6857142857142833h-24Z" style="fill: #4c78a8;"></path><path d="M126,194.8428057142857h24v1.0285714285714391h-24Z" style="fill: #4c78a8;"></path><path d="M126,193.97137714285714h24v0.8714285714285666h-24Z" style="fill: #4c78a8;"></path><path d="M126,193.2842342857143h24v0.0014285714285620088h-24Z" style="fill: #4c78a8;"></path><path d="M126,192.59852h24v0.6857142857142833h-24Z" style="fill: #4c78a8;"></path><path d="M126,191.72709142857144h24v0.8714285714285666h-24Z" style="fill: #4c78a8;"></path><path d="M126,190.86994857142858h24v0.8571428571428612h-24Z" style="fill: #4c78a8;"></path><path d="M126,190.01280571428572h24v0.8571428571428612h-24Z" style="fill: #4c78a8;"></path><path d="M126,189.29852h24v0.7142857142857224h-24Z" style="fill: #4c78a8;"></path><path d="M126,188.35566285714285h24v0.9428571428571502h-24Z" style="fill: #4c78a8;"></path><path d="M126,187.41280571428572h24v0.9428571428571217h-24Z" style="fill: #4c78a8;"></path><path d="M126,186.44137714285714h24v0.9714285714285893h-24Z" style="fill: #4c78a8;"></path><path d="M126,185.46994857142857h24v0.9714285714285609h-24Z" style="fill: #4c78a8;"></path><path d="M126,184.49851999999998h24v0.9714285714285893h-24Z" style="fill: #4c78a8;"></path><path d="M126,183.78394857142857h24v0.00028571428572377044h-24Z" style="fill: #4c78a8;"></path><path d="M126,183.7842342857143h24v0.714285714285694h-24Z" style="fill: #4c78a8;"></path><path d="M126,182.84109142857142h24v0.9428571428571502h-24Z" style="fill: #4c78a8;"></path><path d="M126,181.86966285714286h24v0.9714285714285609h-24Z" style="fill: #4c78a8;"></path><path d="M126,180.8982342857143h24v0.9714285714285609h-24Z" style="fill: #4c78a8;"></path><path d="M126,179.95537714285715h24v0.9428571428571502h-24Z" style="fill: #4c78a8;"></path><path d="M126,179.01252h24v0.9428571428571502h-24Z" style="fill: #4c78a8;"></path><path d="M126,178.06966285714287h24v0.9428571428571217h-24Z" style="fill: #4c78a8;"></path><path d="M126,177.38394857142856h24v0.6857142857143117h-24Z" style="fill: #4c78a8;"></path><path d="M126,174.75537714285713h24v0.6857142857143117h-24Z" style="fill: #4c78a8;"></path><path d="M126,176.41252h24v0.9714285714285609h-24Z" style="fill: #4c78a8;"></path><path d="M126,175.44109142857144h24v0.9714285714285609h-24Z" style="fill: #4c78a8;"></path><path d="M126,173.09823428571428h24v0.6857142857142833h-24Z" style="fill: #4c78a8;"></path><path d="M126,173.78394857142857h24v0.9714285714285609h-24Z" style="fill: #4c78a8;"></path><path d="M126,172.12680571428572h24v0.9714285714285609h-24Z" style="fill: #4c78a8;"></path><path d="M126,169.52680571428573h24v0.6857142857142833h-24Z" style="fill: #4c78a8;"></path><path d="M126,170.21252h24v0.9428571428571217h-24Z" style="fill: #4c78a8;"></path><path d="M126,171.15537714285713h24v0.9714285714285893h-24Z" style="fill: #4c78a8;"></path><path d="M126,168.58394857142858h24v0.9428571428571502h-24Z" style="fill: #4c78a8;"></path><path d="M101,198.34285714285716h24v0.714285714285694h-24Z" style="fill: #4c78a8;"></path><path d="M101,199.05714285714285h24v0.9428571428571502h-24Z" style="fill: #4c78a8;"></path><path d="M101,197.62857142857143h24v0.7142857142857224h-24Z" style="fill: #4c78a8;"></path><path d="M101,196.94285714285715h24v0.6857142857142833h-24Z" style="fill: #4c78a8;"></path><path d="M101,196h24v0.9428571428571502h-24Z" style="fill: #4c78a8;"></path><path d="M101,195.31428571428572h24v0.6857142857142833h-24Z" style="fill: #4c78a8;"></path><path d="M101,194.62857142857143h24v0.6857142857142833h-24Z" style="fill: #4c78a8;"></path><path d="M101,192.14285714285714h24v0.6857142857142833h-24Z" style="fill: #4c78a8;"></path><path d="M101,191.45714285714286h24v0.6857142857142833h-24Z" style="fill: #4c78a8;"></path><path d="M101,192.82857142857142h24v0.8571428571428612h-24Z" style="fill: #4c78a8;"></path><path d="M101,193.68571428571428h24v0.9428571428571502h-24Z" style="fill: #4c78a8;"></path><path d="M101,190.5142857142857h24v0.9428571428571502h-24Z" style="fill: #4c78a8;"></path><path d="M101,189.57142857142858h24v0.9428571428571217h-24Z" style="fill: #4c78a8;"></path><path d="M101,189.57005714285714h24v0.0013714285714456764h-24Z" style="fill: #4c78a8;"></path><path d="M101,188.6272h24v0.9428571428571502h-24Z" style="fill: #4c78a8;"></path><path d="M101,187.9414857142857h24v0.6857142857142833h-24Z" style="fill: #4c78a8;"></path><path d="M101,187.25577142857142h24v0.6857142857142833h-24Z" style="fill: #4c78a8;"></path><path d="M101,186.31291428571427h24v0.9428571428571502h-24Z" style="fill: #4c78a8;"></path><path d="M101,185.37005714285715h24v0.9428571428571217h-24Z" style="fill: #4c78a8;"></path><path d="M101,183.64148571428572h24v0.7857142857142776h-24Z" style="fill: #4c78a8;"></path><path d="M101,184.4272h24v0.9428571428571502h-24Z" style="fill: #4c78a8;"></path><path d="M101,182.95577142857144h24v0.6857142857142833h-24Z" style="fill: #4c78a8;"></path><path d="M101,182.0129142857143h24v0.9428571428571502h-24Z" style="fill: #4c78a8;"></path><path d="M101,181.07005714285714h24v0.9428571428571502h-24Z" style="fill: #4c78a8;"></path><path d="M101,178.39862857142856h24v0.785714285714306h-24Z" style="fill: #4c78a8;"></path><path d="M101,180.1272h24v0.9428571428571502h-24Z" style="fill: #4c78a8;"></path><path d="M101,179.18434285714287h24v0.9428571428571217h-24Z" style="fill: #4c78a8;"></path><path d="M101,177.71291428571428h24v0.6857142857142833h-24Z" style="fill: #4c78a8;"></path><path d="M101,176.9272h24v0.7857142857142776h-24Z" style="fill: #4c78a8;"></path><path d="M101,176.141h24v0.00048571428573040976h-24Z" style="fill: #4c78a8;"></path><path d="M101,176.14148571428572h24v0.7857142857142776h-24Z" style="fill: #4c78a8;"></path><path d="M101,175.4552857142857h24v0.6857142857142833h-24Z" style="fill: #4c78a8;"></path><path d="M101,174.76957142857142h24v0.6857142857142833h-24Z" style="fill: #4c78a8;"></path><path d="M101,174.08385714285714h24v0.6857142857142833h-24Z" style="fill: #4c78a8;"></path><path d="M101,173.39814285714286h24v0.6857142857142833h-24Z" style="fill: #4c78a8;"></path><path d="M101,172.71242857142857h24v0.6857142857142833h-24Z" style="fill: #4c78a8;"></path><path d="M101,172.0267142857143h24v0.6857142857142833h-24Z" style="fill: #4c78a8;"></path><path d="M101,171.31242857142857h24v0.7142857142857224h-24Z" style="fill: #4c78a8;"></path><path d="M101,170.65528571428572h24v0.6571428571428442h-24Z" style="fill: #4c78a8;"></path><path d="M101,169.0227142857143h24v0.6571428571428442h-24Z" style="fill: #4c78a8;"></path><path d="M101,169.67985714285714h24v0.97542857142858h-24Z" style="fill: #4c78a8;"></path><path d="M101,168.16557142857144h24v0.8571428571428612h-24Z" style="fill: #4c78a8;"></path><path d="M101,167.47985714285716h24v0.6857142857142833h-24Z" style="fill: #4c78a8;"></path><path d="M101,166.6227142857143h24v0.8571428571428612h-24Z" style="fill: #4c78a8;"></path><path d="M101,165.64728571428572h24v0.97542857142858h-24Z" style="fill: #4c78a8;"></path><path d="M101,164.933h24v0.7142857142857224h-24Z" style="fill: #4c78a8;"></path><path d="M101,164.21871428571427h24v0.7142857142857224h-24Z" style="fill: #4c78a8;"></path><path d="M101,163.53300000000002h24v0.6857142857142549h-24Z" style="fill: #4c78a8;"></path><path d="M101,162.8472857142857h24v0.6857142857143117h-24Z" style="fill: #4c78a8;"></path><path d="M101,162.16157142857142h24v0.6857142857142833h-24Z" style="fill: #4c78a8;"></path><path d="M101,161.47585714285714h24v0.6857142857142833h-24Z" style="fill: #4c78a8;"></path><path d="M101,160.79014285714285h24v0.6857142857142833h-24Z" style="fill: #4c78a8;"></path><path d="M101,160.10442857142857h24v0.6857142857142833h-24Z" style="fill: #4c78a8;"></path><path d="M101,159.11871428571428h24v0.9857142857142946h-24Z" style="fill: #4c78a8;"></path><path d="M101,158.40442857142858h24v0.714285714285694h-24Z" style="fill: #4c78a8;"></path><path d="M101,157.69014285714286h24v0.7142857142857224h-24Z" style="fill: #4c78a8;"></path><path d="M101,156.97585714285714h24v0.7142857142857224h-24Z" style="fill: #4c78a8;"></path><path d="M101,156.26157142857141h24v0.7142857142857224h-24Z" style="fill: #4c78a8;"></path><path d="M101,155.54728571428572h24v0.714285714285694h-24Z" style="fill: #4c78a8;"></path><path d="M101,154.86157142857144h24v0.6857142857142833h-24Z" style="fill: #4c78a8;"></path><path d="M101,153.87585714285714h24v0.9857142857142946h-24Z" style="fill: #4c78a8;"></path><path d="M101,153.19014285714286h24v0.6857142857142833h-24Z" style="fill: #4c78a8;"></path><path d="M101,153.18997142857143h24v0.00017142857143426227h-24Z" style="fill: #4c78a8;"></path><path d="M101,152.39568571428572h24v0.7942857142857065h-24Z" style="fill: #4c78a8;"></path><path d="M101,151.6014h24v0.7942857142857065h-24Z" style="fill: #4c78a8;"></path><path d="M101,150.80711428571428h24v0.7942857142857349h-24Z" style="fill: #4c78a8;"></path><path d="M101,149.95854285714285h24v0.8485714285714323h-24Z" style="fill: #4c78a8;"></path><path d="M101,149.10997142857144h24v0.8485714285714039h-24Z" style="fill: #4c78a8;"></path><path d="M101,148.1671142857143h24v0.9428571428571502h-24Z" style="fill: #4c78a8;"></path><path d="M101,147.4956857142857h24v0.6714285714285779h-24Z" style="fill: #4c78a8;"></path><path d="M101,145.83854285714284h24v0.7142857142857224h-24Z" style="fill: #4c78a8;"></path><path d="M101,145.12425714285715h24v0.714285714285694h-24Z" style="fill: #4c78a8;"></path><path d="M101,143.72425714285714h24v0.6857142857142833h-24Z" style="fill: #4c78a8;"></path><path d="M101,144.40997142857142h24v0.7142857142857224h-24Z" style="fill: #4c78a8;"></path><path d="M101,146.55282857142856h24v0.9428571428571502h-24Z" style="fill: #4c78a8;"></path><path d="M101,142.78140000000002h24v0.9428571428571217h-24Z" style="fill: #4c78a8;"></path><path d="M101,141.83854285714284h24v0.9428571428571786h-24Z" style="fill: #4c78a8;"></path><path d="M101,141.15282857142859h24v0.6857142857142549h-24Z" style="fill: #4c78a8;"></path><path d="M101,140.46711428571427h24v0.6857142857143117h-24Z" style="fill: #4c78a8;"></path><path d="M101,139.7814h24v0.6857142857142833h-24Z" style="fill: #4c78a8;"></path><path d="M101,139.0956857142857h24v0.6857142857142833h-24Z" style="fill: #4c78a8;"></path><path d="M101,138.40997142857142h24v0.6857142857142833h-24Z" style="fill: #4c78a8;"></path><path d="M101,137.72425714285714h24v0.6857142857142833h-24Z" style="fill: #4c78a8;"></path><path d="M101,137.03854285714286h24v0.6857142857142833h-24Z" style="fill: #4c78a8;"></path><path d="M101,134.35854285714288h24v0.7942857142857065h-24Z" style="fill: #4c78a8;"></path><path d="M101,136.0956857142857h24v0.9428571428571502h-24Z" style="fill: #4c78a8;"></path><path d="M101,135.15282857142859h24v0.9428571428571217h-24Z" style="fill: #4c78a8;"></path><path d="M101,133.4156857142857h24v0.9428571428571786h-24Z" style="fill: #4c78a8;"></path><path d="M101,132.5671142857143h24v0.8485714285714039h-24Z" style="fill: #4c78a8;"></path><path d="M101,131.71854285714284h24v0.8485714285714607h-24Z" style="fill: #4c78a8;"></path><path d="M101,130.92425714285713h24v0.7942857142857065h-24Z" style="fill: #4c78a8;"></path><path d="M101,130.12997142857142h24v0.7942857142857065h-24Z" style="fill: #4c78a8;"></path><path d="M101,129.33568571428572h24v0.7942857142857065h-24Z" style="fill: #4c78a8;"></path><path d="M101,128.67854285714287h24v0.6571428571428442h-24Z" style="fill: #4c78a8;"></path><path d="M101,127.73568571428571h24v0.9428571428571644h-24Z" style="fill: #4c78a8;"></path><path d="M101,126.79282857142857h24v0.942857142857136h-24Z" style="fill: #4c78a8;"></path><path d="M101,125.84997142857142h24v0.9428571428571502h-24Z" style="fill: #4c78a8;"></path><path d="M101,124.9071142857143h24v0.9428571428571217h-24Z" style="fill: #4c78a8;"></path><path d="M101,124.9042857142857h24v0.002828571428594273h-24Z" style="fill: #4c78a8;"></path><path d="M101,123.96142857142857h24v0.942857142857136h-24Z" style="fill: #4c78a8;"></path><path d="M101,123.96057142857143h24v0.0008571428571428896h-24Z" style="fill: #4c78a8;"></path><path d="M101,123.95971428571428h24v0.0008571428571428896h-24Z" style="fill: #4c78a8;"></path><path d="M101,123.274h24v0.6857142857142833h-24Z" style="fill: #4c78a8;"></path><path d="M101,122.58828571428572h24v0.6857142857142833h-24Z" style="fill: #4c78a8;"></path><path d="M101,121.64542857142857h24v0.9428571428571502h-24Z" style="fill: #4c78a8;"></path><path d="M101,120.85114285714286h24v0.7942857142857065h-24Z" style="fill: #4c78a8;"></path><path d="M101,119.90828571428571h24v0.9428571428571502h-24Z" style="fill: #4c78a8;"></path><path d="M101,119.114h24v0.7942857142857065h-24Z" style="fill: #4c78a8;"></path><path d="M101,118.17114285714285h24v0.9428571428571502h-24Z" style="fill: #4c78a8;"></path><path d="M101,117.22828571428572h24v0.942857142857136h-24Z" style="fill: #4c78a8;"></path><path d="M101,116.28542857142857h24v0.9428571428571502h-24Z" style="fill: #4c78a8;"></path><path d="M101,113.22542857142858h24v0.6857142857142691h-24Z" style="fill: #4c78a8;"></path><path d="M101,115.49114285714286h24v0.7942857142857065h-24Z" style="fill: #4c78a8;"></path><path d="M101,113.91114285714285h24v0.7857142857142918h-24Z" style="fill: #4c78a8;"></path><path d="M101,114.69685714285714h24v0.7942857142857207h-24Z" style="fill: #4c78a8;"></path><path d="M101,112.53971428571428h24v0.6857142857142975h-24Z" style="fill: #4c78a8;"></path><path d="M101,111.6682857142857h24v0.8714285714285808h-24Z" style="fill: #4c78a8;"></path><path d="M101,110.98257142857143h24v0.6857142857142691h-24Z" style="fill: #4c78a8;"></path><path d="M101,110.29685714285714h24v0.6857142857142975h-24Z" style="fill: #4c78a8;"></path><path d="M101,109.50257142857143h24v0.7942857142857065h-24Z" style="fill: #4c78a8;"></path><path d="M101,108.63114285714286h24v0.8714285714285666h-24Z" style="fill: #4c78a8;"></path><path d="M101,107.75971428571428h24v0.8714285714285808h-24Z" style="fill: #4c78a8;"></path><path d="M101,106.90257142857142h24v0.8571428571428612h-24Z" style="fill: #4c78a8;"></path><path d="M101,106.21685714285715h24v0.6857142857142691h-24Z" style="fill: #4c78a8;"></path><path d="M101,105.53114285714285h24v0.6857142857142975h-24Z" style="fill: #4c78a8;"></path><path d="M101,104.74542857142856h24v0.7857142857142918h-24Z" style="fill: #4c78a8;"></path><path d="M101,103.95971428571428h24v0.7857142857142776h-24Z" style="fill: #4c78a8;"></path><path d="M101,103.274h24v0.6857142857142833h-24Z" style="fill: #4c78a8;"></path><path d="M101,102.5882857142857h24v0.6857142857142975h-24Z" style="fill: #4c78a8;"></path><path d="M101,101.80257142857143h24v0.7857142857142776h-24Z" style="fill: #4c78a8;"></path><path d="M101,101.01685714285715h24v0.7857142857142776h-24Z" style="fill: #4c78a8;"></path><path d="M101,100.23114285714286h24v0.7857142857142918h-24Z" style="fill: #4c78a8;"></path><path d="M101,99.55685714285714h24v0.0028571428571382285h-24Z" style="fill: #4c78a8;"></path><path d="M101,99.55971428571428h24v0.6714285714285779h-24Z" style="fill: #4c78a8;"></path><path d="M101,98.614h24v0.942857142857136h-24Z" style="fill: #4c78a8;"></path><path d="M101,97.81971428571427h24v0.7942857142857349h-24Z" style="fill: #4c78a8;"></path><path d="M101,97.02542857142858h24v0.7942857142856923h-24Z" style="fill: #4c78a8;"></path><path d="M101,96.33971428571428h24v0.6857142857142975h-24Z" style="fill: #4c78a8;"></path><path d="M101,96.11114285714287h24v0.22857142857141355h-24Z" style="fill: #4c78a8;"></path><path d="M101,95.1682857142857h24v0.9428571428571644h-24Z" style="fill: #4c78a8;"></path><path d="M101,93.51685714285713h24v0.7942857142857207h-24Z" style="fill: #4c78a8;"></path><path d="M101,94.31114285714285h24v0.857142857142847h-24Z" style="fill: #4c78a8;"></path><path d="M101,92.83114285714286h24v0.6857142857142691h-24Z" style="fill: #4c78a8;"></path><path d="M101,92.14542857142858h24v0.6857142857142833h-24Z" style="fill: #4c78a8;"></path><path d="M101,91.45971428571428h24v0.6857142857142975h-24Z" style="fill: #4c78a8;"></path><path d="M101,90.774h24v0.6857142857142833h-24Z" style="fill: #4c78a8;"></path><path d="M101,90.0882857142857h24v0.6857142857142975h-24Z" style="fill: #4c78a8;"></path><path d="M101,89.40257142857142h24v0.6857142857142833h-24Z" style="fill: #4c78a8;"></path><path d="M101,88.71685714285715h24v0.6857142857142691h-24Z" style="fill: #4c78a8;"></path><path d="M101,88.03114285714287h24v0.6857142857142833h-24Z" style="fill: #4c78a8;"></path><path d="M101,87.34542857142857h24v0.6857142857142975h-24Z" style="fill: #4c78a8;"></path><path d="M101,86.65971428571429h24v0.6857142857142833h-24Z" style="fill: #4c78a8;"></path><path d="M101,85.97399999999999h24v0.6857142857142975h-24Z" style="fill: #4c78a8;"></path><path d="M101,83.05685714285713h24v0.0028571428571524393h-24Z" style="fill: #4c78a8;"></path><path d="M101,84.43114285714286h24v0.6857142857142975h-24Z" style="fill: #4c78a8;"></path><path d="M101,83.74542857142858h24v0.6857142857142833h-24Z" style="fill: #4c78a8;"></path><path d="M101,83.05971428571428h24v0.6857142857142975h-24Z" style="fill: #4c78a8;"></path><path d="M101,85.11685714285716h24v0.8571428571428328h-24Z" style="fill: #4c78a8;"></path><path d="M101,82.1997142857143h24v0.8571428571428328h-24Z" style="fill: #4c78a8;"></path><path d="M101,81.514h24v0.6857142857142975h-24Z" style="fill: #4c78a8;"></path><path d="M101,80.82828571428571h24v0.6857142857142833h-24Z" style="fill: #4c78a8;"></path><path d="M101,80.82542857142857h24v0.0028571428571382285h-24Z" style="fill: #4c78a8;"></path><path d="M101,80.13971428571429h24v0.6857142857142833h-24Z" style="fill: #4c78a8;"></path><path d="M101,79.28257142857143h24v0.8571428571428612h-24Z" style="fill: #4c78a8;"></path><path d="M101,78.42542857142858h24v0.857142857142847h-24Z" style="fill: #4c78a8;"></path><path d="M101,77.73971428571429h24v0.6857142857142975h-24Z" style="fill: #4c78a8;"></path><path d="M101,77.054h24v0.6857142857142833h-24Z" style="fill: #4c78a8;"></path><path d="M101,76.3682857142857h24v0.6857142857142975h-24Z" style="fill: #4c78a8;"></path><path d="M101,75.6797142857143h24v0.0028571428571240176h-24Z" style="fill: #4c78a8;"></path><path d="M101,75.6792857142857h24v0.0004285714285998665h-24Z" style="fill: #4c78a8;"></path><path d="M101,75.68257142857142h24v0.6857142857142833h-24Z" style="fill: #4c78a8;"></path><path d="M101,74.99357142857144h24v0.6857142857142549h-24Z" style="fill: #4c78a8;"></path><path d="M101,72.16499999999999h24v0.8571428571428612h-24Z" style="fill: #4c78a8;"></path><path d="M101,74.00785714285713h24v0.9857142857143089h-24Z" style="fill: #4c78a8;"></path><path d="M101,73.02214285714285h24v0.9857142857142804h-24Z" style="fill: #4c78a8;"></path><path d="M101,71.30785714285713h24v0.8571428571428612h-24Z" style="fill: #4c78a8;"></path><path d="M101,70.45071428571427h24v0.8571428571428612h-24Z" style="fill: #4c78a8;"></path><path d="M101,69.76500000000001h24v0.6857142857142549h-24Z" style="fill: #4c78a8;"></path><path d="M101,69.07928571428573h24v0.6857142857142833h-24Z" style="fill: #4c78a8;"></path><path d="M101,68.39357142857142h24v0.6857142857143117h-24Z" style="fill: #4c78a8;"></path><path d="M101,67.45071428571427h24v0.9428571428571502h-24Z" style="fill: #4c78a8;"></path><path d="M101,66.50785714285715h24v0.9428571428571217h-24Z" style="fill: #4c78a8;"></path><path d="M101,65.565h24v0.9428571428571502h-24Z" style="fill: #4c78a8;"></path><path d="M101,64.77071428571429h24v0.7942857142857065h-24Z" style="fill: #4c78a8;"></path><path d="M101,63.82785714285714h24v0.9428571428571502h-24Z" style="fill: #4c78a8;"></path><path d="M101,62.88499999999999h24v0.9428571428571502h-24Z" style="fill: #4c78a8;"></path><path d="M101,62.199285714285736h24v0.6857142857142549h-24Z" style="fill: #4c78a8;"></path><path d="M101,61.405h24v0.7942857142857349h-24Z" style="fill: #4c78a8;"></path><path d="M101,60.71928571428572h24v0.6857142857142833h-24Z" style="fill: #4c78a8;"></path><path d="M101,60.033571428571406h24v0.6857142857143117h-24Z" style="fill: #4c78a8;"></path><path d="M101,59.04785714285714h24v0.9857142857142662h-24Z" style="fill: #4c78a8;"></path><path d="M101,58.36214285714286h24v0.6857142857142833h-24Z" style="fill: #4c78a8;"></path><path d="M101,57.504999999999995h24v0.8571428571428612h-24Z" style="fill: #4c78a8;"></path><path d="M101,56.81928571428571h24v0.6857142857142833h-24Z" style="fill: #4c78a8;"></path><path d="M101,56.13357142857143h24v0.6857142857142833h-24Z" style="fill: #4c78a8;"></path><path d="M101,55.19071428571431h24v0.9428571428571217h-24Z" style="fill: #4c78a8;"></path><path d="M101,54.24785714285713h24v0.9428571428571786h-24Z" style="fill: #4c78a8;"></path><path d="M101,53.81928571428571h24v0.4285714285714164h-24Z" style="fill: #4c78a8;"></path><path d="M101,52.87642857142859h24v0.9428571428571217h-24Z" style="fill: #4c78a8;"></path><path d="M101,51.93357142857141h24v0.9428571428571786h-24Z" style="fill: #4c78a8;"></path><path d="M101,50.99071428571429h24v0.9428571428571217h-24Z" style="fill: #4c78a8;"></path><path d="M101,50.30500000000001h24v0.6857142857142833h-24Z" style="fill: #4c78a8;"></path><path d="M101,49.61928571428572h24v0.6857142857142833h-24Z" style="fill: #4c78a8;"></path><path d="M101,48.93357142857141h24v0.6857142857143117h-24Z" style="fill: #4c78a8;"></path><path d="M101,48.24785714285716h24v0.6857142857142549h-24Z" style="fill: #4c78a8;"></path><path d="M101,47.390714285714296h24v0.8571428571428612h-24Z" style="fill: #4c78a8;"></path><path d="M101,46.704999999999984h24v0.6857142857143117h-24Z" style="fill: #4c78a8;"></path><path d="M101,46.0192857142857h24v0.6857142857142833h-24Z" style="fill: #4c78a8;"></path><path d="M101,45.147857142857134h24v0.8714285714285666h-24Z" style="fill: #4c78a8;"></path><path d="M101,43.41214285714287h24v0.8571428571428612h-24Z" style="fill: #4c78a8;"></path><path d="M101,44.26928571428573h24v0.878571428571405h-24Z" style="fill: #4c78a8;"></path><path d="M101,42.726428571428556h24v0.6857142857143117h-24Z" style="fill: #4c78a8;"></path><path d="M101,41.86928571428572h24v0.8571428571428328h-24Z" style="fill: #4c78a8;"></path><path d="M101,41.01214285714286h24v0.8571428571428612h-24Z" style="fill: #4c78a8;"></path><path d="M101,40.32642857142855h24v0.6857142857143117h-24Z" style="fill: #4c78a8;"></path><path d="M101,39.640714285714296h24v0.6857142857142549h-24Z" style="fill: #4c78a8;"></path><path d="M101,38.95500000000001h24v0.6857142857142833h-24Z" style="fill: #4c78a8;"></path><path d="M101,38.26928571428573h24v0.6857142857142833h-24Z" style="fill: #4c78a8;"></path><path d="M101,37.41214285714284h24v0.8571428571428896h-24Z" style="fill: #4c78a8;"></path><path d="M101,36.726428571428585h24v0.6857142857142549h-24Z" style="fill: #4c78a8;"></path><path d="M101,36.00357142857143h24v0.7228571428571513h-24Z" style="fill: #4c78a8;"></path><path d="M101,35.332142857142856h24v0.6714285714285779h-24Z" style="fill: #4c78a8;"></path><path d="M76,199.28571428571428h24v0.7142857142857224h-24Z" style="fill: #4c78a8;"></path><path d="M76,198.57142857142858h24v0.714285714285694h-24Z" style="fill: #4c78a8;"></path><path d="M76,197.85714285714286h24v0.7142857142857224h-24Z" style="fill: #4c78a8;"></path><path d="M76,197.14285714285714h24v0.7142857142857224h-24Z" style="fill: #4c78a8;"></path><path d="M76,196.45714285714286h24v0.6857142857142833h-24Z" style="fill: #4c78a8;"></path><path d="M76,195.77142857142857h24v0.6857142857142833h-24Z" style="fill: #4c78a8;"></path><path d="M76,194.19142857142856h24v0.7228571428571513h-24Z" style="fill: #4c78a8;"></path><path d="M76,193.50571428571428h24v0.6857142857142833h-24Z" style="fill: #4c78a8;"></path><path d="M76,194.9142857142857h24v0.8571428571428612h-24Z" style="fill: #4c78a8;"></path><path d="M76,192.82h24v0.6857142857142833h-24Z" style="fill: #4c78a8;"></path><path d="M76,191.96285714285713h24v0.8571428571428612h-24Z" style="fill: #4c78a8;"></path><path d="M76,191.10571428571427h24v0.8571428571428612h-24Z" style="fill: #4c78a8;"></path><path d="M76,190.42h24v0.6857142857142833h-24Z" style="fill: #4c78a8;"></path><path d="M76,187.96371428571427h24v0.6934285714285693h-24Z" style="fill: #4c78a8;"></path><path d="M76,189.5142857142857h24v0.9057142857142821h-24Z" style="fill: #4c78a8;"></path><path d="M76,188.65714285714284h24v0.8571428571428612h-24Z" style="fill: #4c78a8;"></path><path d="M76,186.42085714285713h24v0.6857142857143117h-24Z" style="fill: #4c78a8;"></path><path d="M76,187.10657142857144h24v0.8571428571428328h-24Z" style="fill: #4c78a8;"></path><path d="M76,185.70657142857144h24v0.714285714285694h-24Z" style="fill: #4c78a8;"></path><path d="M76,185.02085714285715h24v0.6857142857142833h-24Z" style="fill: #4c78a8;"></path><path d="M76,184.11514285714287h24v0.9057142857142821h-24Z" style="fill: #4c78a8;"></path><path d="M76,183.40085714285715h24v0.7142857142857224h-24Z" style="fill: #4c78a8;"></path><path d="M76,182.49514285714287h24v0.9057142857142821h-24Z" style="fill: #4c78a8;"></path><path d="M76,181.78085714285714h24v0.7142857142857224h-24Z" style="fill: #4c78a8;"></path><path d="M76,181.09514285714286h24v0.6857142857142833h-24Z" style="fill: #4c78a8;"></path><path d="M76,178.86657142857143h24v0.6571428571428442h-24Z" style="fill: #4c78a8;"></path><path d="M76,180.238h24v0.8571428571428612h-24Z" style="fill: #4c78a8;"></path><path d="M76,179.52371428571428h24v0.7142857142857224h-24Z" style="fill: #4c78a8;"></path><path d="M76,178.20942857142856h24v0.6571428571428726h-24Z" style="fill: #4c78a8;"></path><path d="M76,176.55228571428572h24v0.7142857142857224h-24Z" style="fill: #4c78a8;"></path><path d="M76,177.26657142857144h24v0.9428571428571217h-24Z" style="fill: #4c78a8;"></path><path d="M76,175.838h24v0.7142857142857224h-24Z" style="fill: #4c78a8;"></path><path d="M76,175.1237142857143h24v0.714285714285694h-24Z" style="fill: #4c78a8;"></path><path d="M76,175.1222857142857h24v0.0014285714285904305h-24Z" style="fill: #4c78a8;"></path><path d="M76,174.45085714285713h24v0.6714285714285779h-24Z" style="fill: #4c78a8;"></path><path d="M76,173.59371428571427h24v0.8571428571428612h-24Z" style="fill: #4c78a8;"></path><path d="M76,172.90800000000002h24v0.6857142857142549h-24Z" style="fill: #4c78a8;"></path><path d="M76,172.1937142857143h24v0.7142857142857224h-24Z" style="fill: #4c78a8;"></path><path d="M76,171.508h24v0.6857142857142833h-24Z" style="fill: #4c78a8;"></path><path d="M76,170.82228571428573h24v0.6857142857142833h-24Z" style="fill: #4c78a8;"></path><path d="M76,170.13657142857141h24v0.6857142857143117h-24Z" style="fill: #4c78a8;"></path><path d="M76,169.45085714285713h24v0.6857142857142833h-24Z" style="fill: #4c78a8;"></path><path d="M76,168.76514285714285h24v0.6857142857142833h-24Z" style="fill: #4c78a8;"></path><path d="M76,168.07942857142856h24v0.6857142857142833h-24Z" style="fill: #4c78a8;"></path><path d="M76,167.208h24v0.8714285714285666h-24Z" style="fill: #4c78a8;"></path><path d="M76,166.52228571428572h24v0.6857142857142833h-24Z" style="fill: #4c78a8;"></path><path d="M76,165.83657142857143h24v0.6857142857142833h-24Z" style="fill: #4c78a8;"></path><path d="M76,164.208h24v0.6857142857142833h-24Z" style="fill: #4c78a8;"></path><path d="M76,164.89371428571428h24v0.9428571428571502h-24Z" style="fill: #4c78a8;"></path><path d="M76,163.26514285714285h24v0.9428571428571502h-24Z" style="fill: #4c78a8;"></path><path d="M76,162.57942857142856h24v0.6857142857142833h-24Z" style="fill: #4c78a8;"></path><path d="M76,161.89371428571428h24v0.6857142857142833h-24Z" style="fill: #4c78a8;"></path><path d="M76,160.95085714285716h24v0.9428571428571217h-24Z" style="fill: #4c78a8;"></path><path d="M76,160.26514285714285h24v0.6857142857143117h-24Z" style="fill: #4c78a8;"></path><path d="M76,159.57942857142856h24v0.6857142857142833h-24Z" style="fill: #4c78a8;"></path><path d="M76,158.89371428571428h24v0.6857142857142833h-24Z" style="fill: #4c78a8;"></path><path d="M76,158.89266285714285h24v0.0010514285714293692h-24Z" style="fill: #4c78a8;"></path><path d="M76,157.26409142857142h24v0.6857142857143117h-24Z" style="fill: #4c78a8;"></path><path d="M76,157.94980571428573h24v0.9428571428571217h-24Z" style="fill: #4c78a8;"></path><path d="M76,156.3212342857143h24v0.9428571428571217h-24Z" style="fill: #4c78a8;"></path><path d="M76,155.46409142857144h24v0.8571428571428612h-24Z" style="fill: #4c78a8;"></path><path d="M76,154.77837714285715h24v0.6857142857142833h-24Z" style="fill: #4c78a8;"></path><path d="M76,154.09266285714287h24v0.6857142857142833h-24Z" style="fill: #4c78a8;"></path><path d="M76,153.4069485714286h24v0.6857142857142833h-24Z" style="fill: #4c78a8;"></path><path d="M76,152.72123428571427h24v0.6857142857143117h-24Z" style="fill: #4c78a8;"></path><path d="M76,151.86409142857144h24v0.8571428571428328h-24Z" style="fill: #4c78a8;"></path><path d="M76,151.17837714285713h24v0.6857142857143117h-24Z" style="fill: #4c78a8;"></path><path d="M76,150.49266285714288h24v0.6857142857142549h-24Z" style="fill: #4c78a8;"></path><path d="M76,149.80694857142856h24v0.6857142857143117h-24Z" style="fill: #4c78a8;"></path><path d="M76,148.86409142857144h24v0.9428571428571217h-24Z" style="fill: #4c78a8;"></path><path d="M76,148.17837714285713h24v0.6857142857143117h-24Z" style="fill: #4c78a8;"></path><path d="M76,147.49266285714288h24v0.6857142857142549h-24Z" style="fill: #4c78a8;"></path><path d="M76,146.80694857142856h24v0.6857142857143117h-24Z" style="fill: #4c78a8;"></path><path d="M76,146.12123428571428h24v0.6857142857142833h-24Z" style="fill: #4c78a8;"></path><path d="M76,145.43552h24v0.6857142857142833h-24Z" style="fill: #4c78a8;"></path><path d="M76,144.7498057142857h24v0.6857142857142833h-24Z" style="fill: #4c78a8;"></path><path d="M76,144.06409142857143h24v0.6857142857142833h-24Z" style="fill: #4c78a8;"></path><path d="M76,142.52123428571429h24v0.6857142857142833h-24Z" style="fill: #4c78a8;"></path><path d="M76,143.20694857142857h24v0.8571428571428612h-24Z" style="fill: #4c78a8;"></path><path d="M76,141.83552h24v0.6857142857142833h-24Z" style="fill: #4c78a8;"></path><path d="M76,140.27837714285715h24v0.6857142857142549h-24Z" style="fill: #4c78a8;"></path><path d="M76,139.59266285714284h24v0.6857142857143117h-24Z" style="fill: #4c78a8;"></path><path d="M76,138.90694857142856h24v0.6857142857142833h-24Z" style="fill: #4c78a8;"></path><path d="M76,140.9640914285714h24v0.871428571428595h-24Z" style="fill: #4c78a8;"></path><path d="M76,138.22123428571427h24v0.6857142857142833h-24Z" style="fill: #4c78a8;"></path><path d="M76,137.5498057142857h24v0.6714285714285779h-24Z" style="fill: #4c78a8;"></path><path d="M76,136.7012342857143h24v0.8485714285714039h-24Z" style="fill: #4c78a8;"></path><path d="M76,135.82266285714286h24v0.8785714285714334h-24Z" style="fill: #4c78a8;"></path><path d="M76,134.94409142857143h24v0.8785714285714334h-24Z" style="fill: #4c78a8;"></path><path d="M76,134.06552h24v0.8785714285714334h-24Z" style="fill: #4c78a8;"></path><path d="M76,133.18694857142856h24v0.8785714285714334h-24Z" style="fill: #4c78a8;"></path><path d="M76,132.30837714285715h24v0.878571428571405h-24Z" style="fill: #4c78a8;"></path><path d="M76,131.65123428571428h24v0.6571428571428726h-24Z" style="fill: #4c78a8;"></path><path d="M76,130.99409142857144h24v0.6571428571428442h-24Z" style="fill: #4c78a8;"></path><path d="M76,130.3068057142857h24v0.6857142857143117h-24Z" style="fill: #4c78a8;"></path><path d="M76,130.99252h24v0.001571428571423894h-24Z" style="fill: #4c78a8;"></path><path d="M76,129.62109142857145h24v0.6857142857142549h-24Z" style="fill: #4c78a8;"></path><path d="M76,128.93537714285713h24v0.6857142857143117h-24Z" style="fill: #4c78a8;"></path><path d="M76,128.08594857142856h24v0.8485714285714323h-24Z" style="fill: #4c78a8;"></path><path d="M76,128.93452h24v0.0008571428571428896h-24Z" style="fill: #4c78a8;"></path><path d="M76,127.40023428571429h24v0.6857142857142691h-24Z" style="fill: #4c78a8;"></path><path d="M76,126.71452h24v0.6857142857142975h-24Z" style="fill: #4c78a8;"></path><path d="M76,126.02880571428572h24v0.6857142857142691h-24Z" style="fill: #4c78a8;"></path><path d="M76,125.34309142857143h24v0.6857142857142975h-24Z" style="fill: #4c78a8;"></path><path d="M76,124.65737714285714h24v0.6857142857142833h-24Z" style="fill: #4c78a8;"></path><path d="M76,123.97166285714286h24v0.6857142857142833h-24Z" style="fill: #4c78a8;"></path><path d="M76,123.28594857142858h24v0.6857142857142833h-24Z" style="fill: #4c78a8;"></path><path d="M76,122.60023428571428h24v0.6857142857142975h-24Z" style="fill: #4c78a8;"></path><path d="M76,121.91452000000001h24v0.6857142857142691h-24Z" style="fill: #4c78a8;"></path><path d="M76,121.22880571428571h24v0.6857142857142975h-24Z" style="fill: #4c78a8;"></path><path d="M76,121.22029142857144h24v0.008514285714269931h-24Z" style="fill: #4c78a8;"></path><path d="M76,120.53457714285715h24v0.6857142857142975h-24Z" style="fill: #4c78a8;"></path><path d="M76,119.84886285714286h24v0.6857142857142833h-24Z" style="fill: #4c78a8;"></path><path d="M76,119.16314857142858h24v0.6857142857142833h-24Z" style="fill: #4c78a8;"></path><path d="M76,118.4774342857143h24v0.6857142857142833h-24Z" style="fill: #4c78a8;"></path><path d="M76,118.47457714285716h24v0.0028571428571382285h-24Z" style="fill: #4c78a8;"></path><path d="M76,118.47444000000002h24v0.00013714285714172547h-24Z" style="fill: #4c78a8;"></path><path d="M76,117.80301142857144h24v0.6714285714285779h-24Z" style="fill: #4c78a8;"></path><path d="M76,117.13158285714287h24v0.6714285714285637h-24Z" style="fill: #4c78a8;"></path><path d="M76,116.4601542857143h24v0.6714285714285779h-24Z" style="fill: #4c78a8;"></path><path d="M76,115.58872571428573h24v0.8714285714285666h-24Z" style="fill: #4c78a8;"></path><path d="M76,114.73158285714287h24v0.8571428571428612h-24Z" style="fill: #4c78a8;"></path><path d="M76,114.0601542857143h24v0.6714285714285637h-24Z" style="fill: #4c78a8;"></path><path d="M76,113.38872571428573h24v0.6714285714285779h-24Z" style="fill: #4c78a8;"></path><path d="M76,112.51244000000001h24v0.8762857142857143h-24Z" style="fill: #4c78a8;"></path><path d="M76,112.5111542857143h24v0.0012857142857143344h-24Z" style="fill: #4c78a8;"></path><path d="M76,111.63258285714286h24v0.8785714285714334h-24Z" style="fill: #4c78a8;"></path><path d="M76,110.7611542857143h24v0.8714285714285666h-24Z" style="fill: #4c78a8;"></path><path d="M76,110.10401142857144h24v0.6571428571428584h-24Z" style="fill: #4c78a8;"></path><path d="M76,108.53972571428572h24v0.6857142857142833h-24Z" style="fill: #4c78a8;"></path><path d="M76,109.22544h24v0.8785714285714334h-24Z" style="fill: #4c78a8;"></path><path d="M76,107.6611542857143h24v0.8785714285714192h-24Z" style="fill: #4c78a8;"></path><path d="M76,106.09686857142859h24v0.6857142857142833h-24Z" style="fill: #4c78a8;"></path><path d="M76,106.78258285714287h24v0.8785714285714334h-24Z" style="fill: #4c78a8;"></path><path d="M76,105.21829714285715h24v0.8785714285714334h-24Z" style="fill: #4c78a8;"></path><path d="M76,104.33972571428572h24v0.8785714285714334h-24Z" style="fill: #4c78a8;"></path><path d="M76,103.46829714285715h24v0.8714285714285666h-24Z" style="fill: #4c78a8;"></path><path d="M76,102.59686857142857h24v0.8714285714285808h-24Z" style="fill: #4c78a8;"></path><path d="M76,101.8111542857143h24v0.7857142857142776h-24Z" style="fill: #4c78a8;"></path><path d="M76,100.93486857142858h24v0.8762857142857143h-24Z" style="fill: #4c78a8;"></path><path d="M76,99.37772571428572h24v0.6857142857142975h-24Z" style="fill: #4c78a8;"></path><path d="M76,100.06344000000001h24v0.8714285714285666h-24Z" style="fill: #4c78a8;"></path><path d="M76,98.43486857142858h24v0.942857142857136h-24Z" style="fill: #4c78a8;"></path><path d="M76,97.49201142857144h24v0.942857142857136h-24Z" style="fill: #4c78a8;"></path><path d="M76,96.77772571428574h24v0.7142857142857082h-24Z" style="fill: #4c78a8;"></path><path d="M76,95.90629714285714h24v0.871428571428595h-24Z" style="fill: #4c78a8;"></path><path d="M76,95.19201142857143h24v0.7142857142857082h-24Z" style="fill: #4c78a8;"></path><path d="M76,93.54915428571428h24v0.785714285714306h-24Z" style="fill: #4c78a8;"></path><path d="M76,92.86344000000003h24v0.6857142857142549h-24Z" style="fill: #4c78a8;"></path><path d="M76,92.17772571428573h24v0.6857142857142975h-24Z" style="fill: #4c78a8;"></path><path d="M76,94.33486857142859h24v0.857142857142847h-24Z" style="fill: #4c78a8;"></path><path d="M76,91.46344000000002h24v0.7142857142857082h-24Z" style="fill: #4c78a8;"></path><path d="M76,91.46129714285716h24v0.002142857142857224h-24Z" style="fill: #4c78a8;"></path><path d="M76,89.96129714285715h24v0.7142857142857224h-24Z" style="fill: #4c78a8;"></path><path d="M76,90.67558285714287h24v0.7857142857142918h-24Z" style="fill: #4c78a8;"></path><path d="M76,89.24701142857143h24v0.7142857142857224h-24Z" style="fill: #4c78a8;"></path><path d="M76,89.01844000000001h24v0.22857142857141355h-24Z" style="fill: #4c78a8;"></path><path d="M76,87.57558285714286h24v0.5714285714285836h-24Z" style="fill: #4c78a8;"></path><path d="M76,88.14701142857145h24v0.8714285714285666h-24Z" style="fill: #4c78a8;"></path><path d="M76,87.00415428571429h24v0.5714285714285694h-24Z" style="fill: #4c78a8;"></path><path d="M76,86.12558285714287h24v0.8785714285714192h-24Z" style="fill: #4c78a8;"></path><path d="M76,85.3398685714286h24v0.7857142857142776h-24Z" style="fill: #4c78a8;"></path><path d="M76,84.6541542857143h24v0.6857142857142975h-24Z" style="fill: #4c78a8;"></path><path d="M76,83.96844000000002h24v0.6857142857142833h-24Z" style="fill: #4c78a8;"></path><path d="M76,83.28272571428572h24v0.6857142857142975h-24Z" style="fill: #4c78a8;"></path><path d="M76,82.59701142857143h24v0.6857142857142833h-24Z" style="fill: #4c78a8;"></path><path d="M76,81.91129714285717h24v0.6857142857142691h-24Z" style="fill: #4c78a8;"></path><path d="M76,81.12558285714286h24v0.785714285714306h-24Z" style="fill: #4c78a8;"></path><path d="M76,80.43986857142858h24v0.6857142857142833h-24Z" style="fill: #4c78a8;"></path><path d="M76,79.76844000000001h24v0.6714285714285637h-24Z" style="fill: #4c78a8;"></path><path d="M76,78.89701142857145h24v0.8714285714285666h-24Z" style="fill: #4c78a8;"></path><path d="M76,78.21129714285715h24v0.6857142857142975h-24Z" style="fill: #4c78a8;"></path><path d="M76,77.33986857142858h24v0.8714285714285666h-24Z" style="fill: #4c78a8;"></path><path d="M76,76.46129714285715h24v0.8785714285714334h-24Z" style="fill: #4c78a8;"></path><path d="M76,75.74701142857143h24v0.7142857142857224h-24Z" style="fill: #4c78a8;"></path><path d="M76,75.07558285714286h24v0.6714285714285637h-24Z" style="fill: #4c78a8;"></path><path d="M76,74.19701142857144h24v0.8785714285714192h-24Z" style="fill: #4c78a8;"></path><path d="M76,73.32558285714286h24v0.8714285714285808h-24Z" style="fill: #4c78a8;"></path><path d="M76,73.32278285714287h24v0.0027999999999934744h-24Z" style="fill: #4c78a8;"></path><path d="M76,71.73706857142858h24v0.7142857142857224h-24Z" style="fill: #4c78a8;"></path><path d="M76,71.06564000000003h24v0.6714285714285495h-24Z" style="fill: #4c78a8;"></path><path d="M76,72.4513542857143h24v0.8714285714285666h-24Z" style="fill: #4c78a8;"></path><path d="M76,70.21706857142857h24v0.8485714285714607h-24Z" style="fill: #4c78a8;"></path><path d="M76,69.53135428571431h24v0.6857142857142549h-24Z" style="fill: #4c78a8;"></path><path d="M76,68.02278285714289h24v0.714285714285694h-24Z" style="fill: #4c78a8;"></path><path d="M76,68.73706857142858h24v0.7942857142857349h-24Z" style="fill: #4c78a8;"></path><path d="M76,67.35135428571431h24v0.6714285714285779h-24Z" style="fill: #4c78a8;"></path><path d="M76,66.63706857142859h24v0.7142857142857224h-24Z" style="fill: #4c78a8;"></path><path d="M76,66.63678285714286h24v0.00028571428572377044h-24Z" style="fill: #4c78a8;"></path><path d="M76,65.7653542857143h24v0.8714285714285666h-24Z" style="fill: #4c78a8;"></path><path d="M76,64.09964000000002h24v0.7942857142857065h-24Z" style="fill: #4c78a8;"></path><path d="M76,63.3853542857143h24v0.7142857142857224h-24Z" style="fill: #4c78a8;"></path><path d="M76,64.89392571428573h24v0.8714285714285666h-24Z" style="fill: #4c78a8;"></path><path d="M76,62.66821142857145h24v0.0028571428571240176h-24Z" style="fill: #4c78a8;"></path><path d="M76,62.67106857142858h24v0.7142857142857224h-24Z" style="fill: #4c78a8;"></path><path d="M76,61.95392571428573h24v0.7142857142857224h-24Z" style="fill: #4c78a8;"></path><path d="M76,61.23964000000001h24v0.7142857142857224h-24Z" style="fill: #4c78a8;"></path><path d="M76,60.553925714285725h24v0.6857142857142833h-24Z" style="fill: #4c78a8;"></path><path d="M76,59.86821142857144h24v0.6857142857142833h-24Z" style="fill: #4c78a8;"></path><path d="M76,58.996782857142875h24v0.8714285714285666h-24Z" style="fill: #4c78a8;"></path><path d="M76,58.28249714285715h24v0.7142857142857224h-24Z" style="fill: #4c78a8;"></path><path d="M76,57.48821142857145h24v0.7942857142857065h-24Z" style="fill: #4c78a8;"></path><path d="M76,56.80249714285716h24v0.6857142857142833h-24Z" style="fill: #4c78a8;"></path><path d="M76,56.14535428571429h24v0.6571428571428726h-24Z" style="fill: #4c78a8;"></path><path d="M76,55.45864h24v0.6857142857142833h-24Z" style="fill: #4c78a8;"></path><path d="M76,56.144354285714286h24v0.0010000000000047748h-24Z" style="fill: #4c78a8;"></path><path d="M76,54.787211428571425h24v0.6714285714285779h-24Z" style="fill: #4c78a8;"></path><path d="M76,54.78692571428573h24v0.00028571428569534874h-24Z" style="fill: #4c78a8;"></path><path d="M76,54.101211428571446h24v0.6857142857142833h-24Z" style="fill: #4c78a8;"></path><path d="M76,53.41549714285716h24v0.6857142857142833h-24Z" style="fill: #4c78a8;"></path><path d="M76,52.744068571428585h24v0.6714285714285779h-24Z" style="fill: #4c78a8;"></path><path d="M76,52.74389714285718h24v0.00017142857140584056h-24Z" style="fill: #4c78a8;"></path><path d="M76,51.17961142857146h24v0.6857142857142549h-24Z" style="fill: #4c78a8;"></path><path d="M76,51.86532571428572h24v0.8785714285714619h-24Z" style="fill: #4c78a8;"></path><path d="M76,50.30818285714287h24v0.871428571428595h-24Z" style="fill: #4c78a8;"></path><path d="M76,49.65104000000005h24v0.6571428571428157h-24Z" style="fill: #4c78a8;"></path><path d="M76,48.99389714285718h24v0.6571428571428726h-24Z" style="fill: #4c78a8;"></path><path d="M76,48.115325714285774h24v0.878571428571405h-24Z" style="fill: #4c78a8;"></path><path d="M76,47.24389714285718h24v0.871428571428595h-24Z" style="fill: #4c78a8;"></path><path d="M76,46.558182857142896h24v0.6857142857142833h-24Z" style="fill: #4c78a8;"></path><path d="M76,45.67961142857146h24v0.8785714285714334h-24Z" style="fill: #4c78a8;"></path><path d="M76,44.80104000000006h24v0.878571428571405h-24Z" style="fill: #4c78a8;"></path><path d="M76,43.922468571428595h24v0.8785714285714619h-24Z" style="fill: #4c78a8;"></path><path d="M76,43.04389714285719h24v0.878571428571405h-24Z" style="fill: #4c78a8;"></path><path d="M76,41.479611428571474h24v0.6857142857142833h-24Z" style="fill: #4c78a8;"></path><path d="M76,42.16532571428576h24v0.8785714285714334h-24Z" style="fill: #4c78a8;"></path><path d="M76,40.60818285714291h24v0.8714285714285666h-24Z" style="fill: #4c78a8;"></path><path d="M76,39.922468571428595h24v0.6857142857143117h-24Z" style="fill: #4c78a8;"></path><path d="M76,39.23675428571431h24v0.6857142857142833h-24Z" style="fill: #4c78a8;"></path><path d="M76,38.55104000000006h24v0.6857142857142549h-24Z" style="fill: #4c78a8;"></path><path d="M76,38.55061142857147h24v0.00042857142858565567h-24Z" style="fill: #4c78a8;"></path><path d="M76,37.86489714285719h24v0.6857142857142833h-24Z" style="fill: #4c78a8;"></path><path d="M76,36.99346857142859h24v0.871428571428595h-24Z" style="fill: #4c78a8;"></path><path d="M76,36.30775428571434h24v0.6857142857142549h-24Z" style="fill: #4c78a8;"></path><path d="M76,35.622040000000055h24v0.6857142857142833h-24Z" style="fill: #4c78a8;"></path><path d="M76,34.92861142857146h24v0.6934285714285977h-24Z" style="fill: #4c78a8;"></path><path d="M76,34.242897142857174h24v0.6857142857142833h-24Z" style="fill: #4c78a8;"></path><path d="M76,33.549468571428605h24v0.6934285714285693h-24Z" style="fill: #4c78a8;"></path><path d="M76,32.67804000000004h24v0.8714285714285666h-24Z" style="fill: #4c78a8;"></path><path d="M76,31.98461142857147h24v0.6934285714285693h-24Z" style="fill: #4c78a8;"></path><path d="M76,31.2911828571429h24v0.6934285714285693h-24Z" style="fill: #4c78a8;"></path><path d="M76,30.605468571428617h24v0.6857142857142833h-24Z" style="fill: #4c78a8;"></path><path d="M76,29.91204000000002h24v0.6934285714285977h-24Z" style="fill: #4c78a8;"></path><path d="M76,29.040611428571452h24v0.8714285714285666h-24Z" style="fill: #4c78a8;"></path><path d="M76,29.03338285714287h24v0.0028571428571524393h-24Z" style="fill: #4c78a8;"></path><path d="M76,29.03624000000002h24v0.001571428571423894h-24Z" style="fill: #4c78a8;"></path><path d="M76,29.037811428571445h24v0.0028000000000076852h-24Z" style="fill: #4c78a8;"></path><path d="M76,28.1619542857143h24v0.8714285714285666h-24Z" style="fill: #4c78a8;"></path><path d="M76,27.283382857142897h24v0.878571428571405h-24Z" style="fill: #4c78a8;"></path><path d="M76,25.733382857142885h24v0.6714285714285779h-24Z" style="fill: #4c78a8;"></path><path d="M76,26.404811428571463h24v0.8785714285714334h-24Z" style="fill: #4c78a8;"></path><path d="M76,25.047668571428602h24v0.6857142857142833h-24Z" style="fill: #4c78a8;"></path><path d="M76,24.36195428571432h24v0.6857142857142833h-24Z" style="fill: #4c78a8;"></path><path d="M76,23.676240000000007h24v0.6857142857143117h-24Z" style="fill: #4c78a8;"></path><path d="M76,23.004811428571458h24v0.6714285714285495h-24Z" style="fill: #4c78a8;"></path><path d="M76,22.319097142857146h24v0.6857142857143117h-24Z" style="fill: #4c78a8;"></path><path d="M76,21.63338285714289h24v0.6857142857142549h-24Z" style="fill: #4c78a8;"></path><path d="M76,20.69052571428574h24v0.9428571428571502h-24Z" style="fill: #4c78a8;"></path><path d="M76,20.004811428571458h24v0.6857142857142833h-24Z" style="fill: #4c78a8;"></path><path d="M76,19.14486857142859h24v0.8571428571428328h-24Z" style="fill: #4c78a8;"></path><path d="M76,20.00201142857142h24v0.002800000000036107h-24Z" style="fill: #4c78a8;"></path><path d="M76,18.430582857142866h24v0.7142857142857224h-24Z" style="fill: #4c78a8;"></path><path d="M76,17.487725714285716h24v0.9428571428571502h-24Z" style="fill: #4c78a8;"></path><path d="M76,16.773439999999994h24v0.7142857142857224h-24Z" style="fill: #4c78a8;"></path><path d="M76,16.77058285714287h24v0.0028571428571240176h-24Z" style="fill: #4c78a8;"></path><path d="M76,16.084868571428586h24v0.6857142857142833h-24Z" style="fill: #4c78a8;"></path><path d="M76,15.179154285714304h24v0.9057142857142821h-24Z" style="fill: #4c78a8;"></path><path d="M76,14.273440000000022h24v0.9057142857142821h-24Z" style="fill: #4c78a8;"></path><path d="M51,199.9972h24v0.0028000000000076852h-24Z" style="fill: #4c78a8;"></path><path d="M51,199.99505714285715h24v0.002142857142843013h-24Z" style="fill: #4c78a8;"></path><path d="M51,199.99391428571428h24v0.00114285714286666h-24Z" style="fill: #4c78a8;"></path><path d="M51,199.0882h24v0.9057142857142821h-24Z" style="fill: #4c78a8;"></path><path d="M51,198.20962857142857h24v0.8785714285714334h-24Z" style="fill: #4c78a8;"></path><path d="M51,196.64762857142858h24v0.6857142857142833h-24Z" style="fill: #4c78a8;"></path><path d="M51,197.33334285714287h24v0.8762857142857001h-24Z" style="fill: #4c78a8;"></path><path d="M51,195.94762857142857h24v0.700000000000017h-24Z" style="fill: #4c78a8;"></path><path d="M51,195.26191428571428h24v0.6857142857142833h-24Z" style="fill: #4c78a8;"></path><path d="M51,194.5762h24v0.6857142857142833h-24Z" style="fill: #4c78a8;"></path><path d="M51,194.57605714285714h24v0.00014285714286188522h-24Z" style="fill: #4c78a8;"></path><path d="M51,193.89034285714285h24v0.6857142857142833h-24Z" style="fill: #4c78a8;"></path><path d="M51,193.01405714285715h24v0.8762857142857001h-24Z" style="fill: #4c78a8;"></path><path d="M51,192.13777142857143h24v0.8762857142857285h-24Z" style="fill: #4c78a8;"></path><path d="M51,191.26148571428573h24v0.8762857142857001h-24Z" style="fill: #4c78a8;"></path><path d="M51,190.57562857142858h24v0.00014285714286188522h-24Z" style="fill: #4c78a8;"></path><path d="M51,190.57577142857144h24v0.6857142857142833h-24Z" style="fill: #4c78a8;"></path><path d="M51,189.69705714285715h24v0.8785714285714334h-24Z" style="fill: #4c78a8;"></path><path d="M51,188.8184857142857h24v0.8785714285714334h-24Z" style="fill: #4c78a8;"></path><path d="M51,187.94591428571428h24v0.8725714285714332h-24Z" style="fill: #4c78a8;"></path><path d="M51,187.07448571428571h24v0.8714285714285666h-24Z" style="fill: #4c78a8;"></path><path d="M51,186.3602h24v0.7142857142857224h-24Z" style="fill: #4c78a8;"></path><path d="M51,185.48162857142856h24v0.8785714285714334h-24Z" style="fill: #4c78a8;"></path><path d="M51,184.76734285714286h24v0.714285714285694h-24Z" style="fill: #4c78a8;"></path><path d="M51,184.05305714285714h24v0.7142857142857224h-24Z" style="fill: #4c78a8;"></path><path d="M51,184.05254285714287h24v0.0005142857142743651h-24Z" style="fill: #4c78a8;"></path><path d="M51,184.05068571428572h24v0.0018571428571476645h-24Z" style="fill: #4c78a8;"></path><path d="M51,183.1721142857143h24v0.8785714285714334h-24Z" style="fill: #4c78a8;"></path><path d="M51,182.30068571428572h24v0.8714285714285666h-24Z" style="fill: #4c78a8;"></path><path d="M51,181.39497142857144h24v0.9057142857142821h-24Z" style="fill: #4c78a8;"></path><path d="M51,180.68068571428572h24v0.7142857142857224h-24Z" style="fill: #4c78a8;"></path><path d="M51,179.9664h24v0.7142857142857224h-24Z" style="fill: #4c78a8;"></path><path d="M51,179.09497142857143h24v0.8714285714285666h-24Z" style="fill: #4c78a8;"></path><path d="M51,178.22354285714286h24v0.8714285714285666h-24Z" style="fill: #4c78a8;"></path><path d="M51,177.55211428571428h24v0.6714285714285779h-24Z" style="fill: #4c78a8;"></path><path d="M51,177.55182857142856h24v0.00028571428572377044h-24Z" style="fill: #4c78a8;"></path><path d="M51,176.8804h24v0.6714285714285495h-24Z" style="fill: #4c78a8;"></path><path d="M51,175.97468571428573h24v0.9057142857142821h-24Z" style="fill: #4c78a8;"></path><path d="M51,175.06897142857142h24v0.9057142857143106h-24Z" style="fill: #4c78a8;"></path><path d="M51,174.39754285714287h24v0.6714285714285495h-24Z" style="fill: #4c78a8;"></path><path d="M51,173.7261142857143h24v0.6714285714285779h-24Z" style="fill: #4c78a8;"></path><path d="M51,172.85454285714286h24v0.00014285714286188522h-24Z" style="fill: #4c78a8;"></path><path d="M51,172.85468571428572h24v0.8714285714285666h-24Z" style="fill: #4c78a8;"></path><path d="M51,172.85397142857144h24v0.0005714285714191192h-24Z" style="fill: #4c78a8;"></path><path d="M51,172.8534857142857h24v0.00048571428573040976h-24Z" style="fill: #4c78a8;"></path><path d="M51,172.85337142857142h24v0.00011428571428950818h-24Z" style="fill: #4c78a8;"></path><path d="M51,172.85294285714286h24v0.00042857142855723396h-24Z" style="fill: #4c78a8;"></path><path d="M51,171.9815142857143h24v0.8714285714285666h-24Z" style="fill: #4c78a8;"></path><path d="M51,170.42437142857142h24v0.6857142857142833h-24Z" style="fill: #4c78a8;"></path><path d="M51,171.1100857142857h24v0.871428571428595h-24Z" style="fill: #4c78a8;"></path><path d="M51,169.75294285714287h24v0.6714285714285495h-24Z" style="fill: #4c78a8;"></path><path d="M51,168.88151428571427h24v0.871428571428595h-24Z" style="fill: #4c78a8;"></path><path d="M51,168.21008571428573h24v0.6714285714285495h-24Z" style="fill: #4c78a8;"></path><path d="M51,167.53865714285715h24v0.6714285714285779h-24Z" style="fill: #4c78a8;"></path><path d="M51,166.86722857142857h24v0.6714285714285779h-24Z" style="fill: #4c78a8;"></path><path d="M51,165.9615142857143h24v0.9057142857142821h-24Z" style="fill: #4c78a8;"></path><path d="M51,165.24722857142856h24v0.7142857142857224h-24Z" style="fill: #4c78a8;"></path><path d="M51,164.53294285714287h24v0.714285714285694h-24Z" style="fill: #4c78a8;"></path><path d="M51,163.6615142857143h24v0.8714285714285666h-24Z" style="fill: #4c78a8;"></path><path d="M51,162.9758h24v0.6857142857143117h-24Z" style="fill: #4c78a8;"></path><path d="M51,162.10437142857143h24v0.8714285714285666h-24Z" style="fill: #4c78a8;"></path><path d="M51,161.23294285714286h24v0.8714285714285666h-24Z" style="fill: #4c78a8;"></path><path d="M51,160.3615142857143h24v0.8714285714285666h-24Z" style="fill: #4c78a8;"></path><path d="M51,159.67579999999998h24v0.6857142857143117h-24Z" style="fill: #4c78a8;"></path><path d="M51,158.99008571428573h24v0.6857142857142549h-24Z" style="fill: #4c78a8;"></path><path d="M51,158.08437142857142h24v0.9057142857143106h-24Z" style="fill: #4c78a8;"></path><path d="M51,157.41294285714287h24v0.6714285714285495h-24Z" style="fill: #4c78a8;"></path><path d="M51,156.72722857142855h24v0.6857142857143117h-24Z" style="fill: #4c78a8;"></path><path d="M51,155.8558h24v0.8714285714285666h-24Z" style="fill: #4c78a8;"></path><path d="M51,155.06151428571428h24v0.7942857142857065h-24Z" style="fill: #4c78a8;"></path><path d="M51,154.3758h24v0.6857142857142833h-24Z" style="fill: #4c78a8;"></path><path d="M51,153.71865714285713h24v0.6571428571428726h-24Z" style="fill: #4c78a8;"></path><path d="M51,152.81294285714284h24v0.9057142857142821h-24Z" style="fill: #4c78a8;"></path><path d="M51,152.12722857142856h24v0.6857142857142833h-24Z" style="fill: #4c78a8;"></path><path d="M51,151.44151428571428h24v0.6857142857142833h-24Z" style="fill: #4c78a8;"></path><path d="M51,151.43865714285715h24v0.0028571428571240176h-24Z" style="fill: #4c78a8;"></path><path d="M51,151.4358h24v0.0028571428571524393h-24Z" style="fill: #4c78a8;"></path><path d="M51,150.53008571428572h24v0.9057142857142821h-24Z" style="fill: #4c78a8;"></path><path d="M51,149.84437142857143h24v0.6857142857142833h-24Z" style="fill: #4c78a8;"></path><path d="M51,149.18722857142856h24v0.6571428571428726h-24Z" style="fill: #4c78a8;"></path><path d="M51,148.6158h24v0.5714285714285552h-24Z" style="fill: #4c78a8;"></path><path d="M51,147.95865714285713h24v0.6571428571428726h-24Z" style="fill: #4c78a8;"></path><path d="M51,147.27294285714285h24v0.6857142857142833h-24Z" style="fill: #4c78a8;"></path><path d="M51,146.61579999999998h24v0.6571428571428726h-24Z" style="fill: #4c78a8;"></path><path d="M51,145.73722857142857h24v0.878571428571405h-24Z" style="fill: #4c78a8;"></path><path d="M51,145.0515142857143h24v0.6857142857142833h-24Z" style="fill: #4c78a8;"></path><path d="M51,144.3658h24v0.6857142857142833h-24Z" style="fill: #4c78a8;"></path><path d="M51,143.6788h24v0.6857142857142833h-24Z" style="fill: #4c78a8;"></path><path d="M51,144.36451428571428h24v0.0012857142857285453h-24Z" style="fill: #4c78a8;"></path><path d="M51,142.9930857142857h24v0.6857142857142833h-24Z" style="fill: #4c78a8;"></path><path d="M51,142.08737142857143h24v0.9057142857142821h-24Z" style="fill: #4c78a8;"></path><path d="M51,140.68737142857142h24v0.6857142857142833h-24Z" style="fill: #4c78a8;"></path><path d="M51,141.3730857142857h24v0.7142857142857224h-24Z" style="fill: #4c78a8;"></path><path d="M51,140.00165714285714h24v0.6857142857142833h-24Z" style="fill: #4c78a8;"></path><path d="M51,139.31594285714286h24v0.6857142857142833h-24Z" style="fill: #4c78a8;"></path><path d="M51,138.65879999999999h24v0.6571428571428726h-24Z" style="fill: #4c78a8;"></path><path d="M51,137.97308571428573h24v0.6857142857142549h-24Z" style="fill: #4c78a8;"></path><path d="M51,137.06737142857142h24v0.9057142857143106h-24Z" style="fill: #4c78a8;"></path><path d="M51,136.41022857142858h24v0.6571428571428442h-24Z" style="fill: #4c78a8;"></path><path d="M51,135.7530857142857h24v0.6571428571428726h-24Z" style="fill: #4c78a8;"></path><path d="M51,135.09594285714286h24v0.6571428571428442h-24Z" style="fill: #4c78a8;"></path><path d="M51,134.41022857142858h24v0.6857142857142833h-24Z" style="fill: #4c78a8;"></path><path d="M51,133.7530857142857h24v0.6571428571428726h-24Z" style="fill: #4c78a8;"></path><path d="M51,133.06737142857142h24v0.6857142857142833h-24Z" style="fill: #4c78a8;"></path><path d="M51,132.38165714285714h24v0.6857142857142833h-24Z" style="fill: #4c78a8;"></path><path d="M51,132.3812142857143h24v0.0004428571428434225h-24Z" style="fill: #4c78a8;"></path><path d="M51,131.50978571428573h24v0.8714285714285666h-24Z" style="fill: #4c78a8;"></path><path d="M51,130.7955h24v0.7142857142857224h-24Z" style="fill: #4c78a8;"></path><path d="M51,130.79464285714286h24v0.0008571428571428896h-24Z" style="fill: #4c78a8;"></path><path d="M51,130.08035714285714h24v0.7142857142857224h-24Z" style="fill: #4c78a8;"></path><path d="M51,129.40464285714285h24v0.6757142857142924h-24Z" style="fill: #4c78a8;"></path><path d="M51,129.40444285714284h24v0.0002000000000066393h-24Z" style="fill: #4c78a8;"></path><path d="M51,128.0715857142857h24v0.6571428571428726h-24Z" style="fill: #4c78a8;"></path><path d="M51,128.72872857142858h24v0.675714285714264h-24Z" style="fill: #4c78a8;"></path><path d="M51,127.20015714285714h24v0.8714285714285666h-24Z" style="fill: #4c78a8;"></path><path d="M51,127.19915714285715h24v0.000999999999990564h-24Z" style="fill: #4c78a8;"></path><path d="M51,127.1963h24v0.0028571428571524393h-24Z" style="fill: #4c78a8;"></path><path d="M51,127.1935h24v0.0027999999999934744h-24Z" style="fill: #4c78a8;"></path><path d="M51,126.28778571428572h24v0.9057142857142821h-24Z" style="fill: #4c78a8;"></path><path d="M51,125.39692857142856h24v0.8908571428571577h-24Z" style="fill: #4c78a8;"></path><path d="M51,125.39664285714287h24v0.00028571428569534874h-24Z" style="fill: #4c78a8;"></path><path d="M51,124.52521428571428h24v0.8714285714285808h-24Z" style="fill: #4c78a8;"></path><path d="M51,124.5245h24v0.0007142857142810044h-24Z" style="fill: #4c78a8;"></path><path d="M51,123.86735714285713h24v0.6571428571428726h-24Z" style="fill: #4c78a8;"></path><path d="M51,122.96164285714286h24v0.9057142857142679h-24Z" style="fill: #4c78a8;"></path><path d="M51,122.96032857142858h24v0.0013142857142867115h-24Z" style="fill: #4c78a8;"></path><path d="M51,122.95901428571429h24v0.0013142857142867115h-24Z" style="fill: #4c78a8;"></path><path d="M51,122.30055714285716h24v0.6571428571428726h-24Z" style="fill: #4c78a8;"></path><path d="M51,122.95770000000003h24v0.0013142857142582898h-24Z" style="fill: #4c78a8;"></path><path d="M51,121.39484285714288h24v0.9057142857142821h-24Z" style="fill: #4c78a8;"></path><path d="M51,120.7091285714286h24v0.6857142857142833h-24Z" style="fill: #4c78a8;"></path><path d="M51,120.0234142857143h24v0.6857142857142975h-24Z" style="fill: #4c78a8;"></path><path d="M51,119.36627142857145h24v0.6571428571428442h-24Z" style="fill: #4c78a8;"></path><path d="M51,118.49484285714288h24v0.8714285714285666h-24Z" style="fill: #4c78a8;"></path><path d="M51,117.83770000000003h24v0.6571428571428584h-24Z" style="fill: #4c78a8;"></path><path d="M51,117.83584285714288h24v0.0018571428571476645h-24Z" style="fill: #4c78a8;"></path><path d="M51,117.17870000000002h24v0.6571428571428584h-24Z" style="fill: #4c78a8;"></path><path d="M51,117.17590000000003h24v0.0027999999999934744h-24Z" style="fill: #4c78a8;"></path><path d="M51,117.17574571428574h24v0.00015428571428799387h-24Z" style="fill: #4c78a8;"></path><path d="M51,117.1751742857143h24v0.00057142857143333h-24Z" style="fill: #4c78a8;"></path><path d="M51,117.17471714285718h24v0.000457142857129611h-24Z" style="fill: #4c78a8;"></path><path d="M51,117.17191714285718h24v0.0027999999999934744h-24Z" style="fill: #4c78a8;"></path><path d="M51,117.17006000000005h24v0.0018571428571334536h-24Z" style="fill: #4c78a8;"></path><path d="M51,116.48434571428575h24v0.6857142857142975h-24Z" style="fill: #4c78a8;"></path><path d="M51,115.79863142857147h24v0.6857142857142833h-24Z" style="fill: #4c78a8;"></path><path d="M51,115.11291714285719h24v0.6857142857142833h-24Z" style="fill: #4c78a8;"></path><path d="M51,114.4272028571429h24v0.6857142857142833h-24Z" style="fill: #4c78a8;"></path><path d="M51,113.7414885714286h24v0.6857142857142975h-24Z" style="fill: #4c78a8;"></path><path d="M51,113.74091714285719h24v0.0005714285714191192h-24Z" style="fill: #4c78a8;"></path><path d="M51,113.0552028571429h24v0.6857142857142833h-24Z" style="fill: #4c78a8;"></path><path d="M51,112.3694885714286h24v0.6857142857142975h-24Z" style="fill: #4c78a8;"></path><path d="M51,111.68377428571432h24v0.6857142857142833h-24Z" style="fill: #4c78a8;"></path><path d="M51,110.99806000000004h24v0.6857142857142833h-24Z" style="fill: #4c78a8;"></path><path d="M51,110.31234571428575h24v0.6857142857142833h-24Z" style="fill: #4c78a8;"></path><path d="M51,109.62663142857146h24v0.6857142857142975h-24Z" style="fill: #4c78a8;"></path><path d="M51,108.94091714285719h24v0.6857142857142691h-24Z" style="fill: #4c78a8;"></path><path d="M51,108.25520285714289h24v0.6857142857142975h-24Z" style="fill: #4c78a8;"></path><path d="M51,108.25448857142861h24v0.0007142857142810044h-24Z" style="fill: #4c78a8;"></path><path d="M51,108.25397428571432h24v0.000514285714288576h-24Z" style="fill: #4c78a8;"></path><path d="M51,107.39683142857147h24v0.857142857142847h-24Z" style="fill: #4c78a8;"></path><path d="M51,107.39494571428577h24v0.0018857142857058307h-24Z" style="fill: #4c78a8;"></path><path d="M51,106.70923142857148h24v0.6857142857142833h-24Z" style="fill: #4c78a8;"></path><path d="M51,105.85208857142861h24v0.8571428571428754h-24Z" style="fill: #4c78a8;"></path><path d="M51,105.8518028571429h24v0.0002857142857095596h-24Z" style="fill: #4c78a8;"></path><path d="M51,105.16608857142862h24v0.6857142857142833h-24Z" style="fill: #4c78a8;"></path><path d="M51,104.48037428571433h24v0.6857142857142833h-24Z" style="fill: #4c78a8;"></path><path d="M51,104.48026000000004h24v0.00011428571428950818h-24Z" style="fill: #4c78a8;"></path><path d="M51,103.6231171428572h24v0.857142857142847h-24Z" style="fill: #4c78a8;"></path><path d="M51,102.05883142857147h24v0.6857142857142975h-24Z" style="fill: #4c78a8;"></path><path d="M51,102.74454571428576h24v0.8785714285714334h-24Z" style="fill: #4c78a8;"></path><path d="M51,101.37283142857147h24v0.0002857142857095596h-24Z" style="fill: #4c78a8;"></path><path d="M51,101.37311714285718h24v0.6857142857142833h-24Z" style="fill: #4c78a8;"></path><path d="M51,101.37151714285719h24v0.0013142857142867115h-24Z" style="fill: #4c78a8;"></path><path d="M51,100.51437428571434h24v0.857142857142847h-24Z" style="fill: #4c78a8;"></path><path d="M51,100.5142228571429h24v0.00015142857144212485h-24Z" style="fill: #4c78a8;"></path><path d="M51,100.5130228571429h24v0.0011999999999972033h-24Z" style="fill: #4c78a8;"></path><path d="M51,99.63445142857145h24v0.8785714285714477h-24Z" style="fill: #4c78a8;"></path><path d="M51,98.75588000000005h24v0.878571428571405h-24Z" style="fill: #4c78a8;"></path><path d="M51,97.8745085714286h24v0.8785714285714477h-24Z" style="fill: #4c78a8;"></path><path d="M51,98.75308000000005h24v0.0027999999999934744h-24Z" style="fill: #4c78a8;"></path><path d="M51,97.8735085714286h24v0.0010000000000047748h-24Z" style="fill: #4c78a8;"></path><path d="M51,97.86779428571433h24v0.005714285714276457h-24Z" style="fill: #4c78a8;"></path><path d="M51,97.86764285714288h24v0.00015142857144212485h-24Z" style="fill: #4c78a8;"></path><path d="M51,96.98907142857148h24v0.878571428571405h-24Z" style="fill: #4c78a8;"></path><path d="M51,96.11050000000003h24v0.8785714285714477h-24Z" style="fill: #4c78a8;"></path><path d="M51,95.20478571428575h24v0.9057142857142821h-24Z" style="fill: #4c78a8;"></path><path d="M51,94.53650000000002h24v0.6682857142857301h-24Z" style="fill: #4c78a8;"></path><path d="M51,93.87935714285717h24v0.6571428571428442h-24Z" style="fill: #4c78a8;"></path><path d="M51,93.65821428571432h24v0.2211428571428513h-24Z" style="fill: #4c78a8;"></path><path d="M51,92.77964285714289h24v0.8785714285714334h-24Z" style="fill: #4c78a8;"></path><path d="M51,92.55107142857146h24v0.22857142857142776h-24Z" style="fill: #4c78a8;"></path><path d="M51,91.8939285714286h24v0.6571428571428584h-24Z" style="fill: #4c78a8;"></path><path d="M26,199.99897142857142h24v0.001028571428577152h-24Z" style="fill: #4c78a8;"></path><path d="M26,199.99868571428573h24v0.00028571428569534874h-24Z" style="fill: #4c78a8;"></path><path d="M26,199.34154285714285h24v0.6571428571428726h-24Z" style="fill: #4c78a8;"></path><path d="M26,198.6844h24v0.6571428571428442h-24Z" style="fill: #4c78a8;"></path><path d="M26,198.68337142857143h24v0.001028571428577152h-24Z" style="fill: #4c78a8;"></path><path d="M26,198.02622857142856h24v0.6571428571428726h-24Z" style="fill: #4c78a8;"></path><path d="M26,197.36908571428572h24v0.6571428571428442h-24Z" style="fill: #4c78a8;"></path><path d="M26,196.46337142857143h24v0.9057142857142821h-24Z" style="fill: #4c78a8;"></path><path d="M26,195.80622857142856h24v0.6571428571428726h-24Z" style="fill: #4c78a8;"></path><path d="M26,195.2348h24v0.5714285714285552h-24Z" style="fill: #4c78a8;"></path><path d="M26,194.66337142857142h24v0.5714285714285836h-24Z" style="fill: #4c78a8;"></path><path d="M26,194.09194285714287h24v0.5714285714285552h-24Z" style="fill: #4c78a8;"></path><path d="M26,193.52051428571428h24v0.5714285714285836h-24Z" style="fill: #4c78a8;"></path><path d="M26,192.6148h24v0.9057142857142821h-24Z" style="fill: #4c78a8;"></path><path d="M26,191.70908571428572h24v0.9057142857142821h-24Z" style="fill: #4c78a8;"></path><path d="M26,191.05194285714285h24v0.6571428571428726h-24Z" style="fill: #4c78a8;"></path><path d="M26,190.3948h24v0.6571428571428442h-24Z" style="fill: #4c78a8;"></path><path d="M26,189.48908571428572h24v0.9057142857142821h-24Z" style="fill: #4c78a8;"></path><path d="M26,188.58337142857144h24v0.9057142857142821h-24Z" style="fill: #4c78a8;"></path><path d="M26,188.58205714285714h24v0.0013142857143009223h-24Z" style="fill: #4c78a8;"></path><path d="M26,187.91377142857144h24v0.6682857142857017h-24Z" style="fill: #4c78a8;"></path><path d="M26,187.2454857142857h24v0.6682857142857301h-24Z" style="fill: #4c78a8;"></path><path d="M26,186.5772h24v0.6682857142857017h-24Z" style="fill: #4c78a8;"></path><path d="M26,185.90891428571427h24v0.6682857142857301h-24Z" style="fill: #4c78a8;"></path><path d="M26,185.90811428571428h24v0.0007999999999981355h-24Z" style="fill: #4c78a8;"></path><path d="M26,185.90622857142858h24v0.0018857142856916198h-24Z" style="fill: #4c78a8;"></path><path d="M26,185.90394285714285h24v0.00228571428573332h-24Z" style="fill: #4c78a8;"></path><path d="M26,185.23565714285715h24v0.6682857142857017h-24Z" style="fill: #4c78a8;"></path><path d="M26,184.56737142857142h24v0.6682857142857301h-24Z" style="fill: #4c78a8;"></path><path d="M26,183.66165714285714h24v0.9057142857142821h-24Z" style="fill: #4c78a8;"></path><path d="M26,183.6600857142857h24v0.001571428571423894h-24Z" style="fill: #4c78a8;"></path><path d="M26,183.6585142857143h24v0.001571428571423894h-24Z" style="fill: #4c78a8;"></path><path d="M26,183.6568h24v0.0017142857142857792h-24Z" style="fill: #4c78a8;"></path><path d="M26,183.65508571428572h24v0.0017142857142857792h-24Z" style="fill: #4c78a8;"></path><path d="M26,183.65493571428573h24v0.00014999999999076863h-24Z" style="fill: #4c78a8;"></path><path d="M26,183.65407857142858h24v0.0008571428571428896h-24Z" style="fill: #4c78a8;"></path><path d="M26,183.65365h24v0.00042857142858565567h-24Z" style="fill: #4c78a8;"></path><path d="M26,182.93936428571428h24v0.7142857142857224h-24Z" style="fill: #4c78a8;"></path><path d="M26,182.22507857142858h24v0.714285714285694h-24Z" style="fill: #4c78a8;"></path><path d="M26,181.51079285714286h24v0.7142857142857224h-24Z" style="fill: #4c78a8;"></path><path d="M26,180.79650714285714h24v0.7142857142857224h-24Z" style="fill: #4c78a8;"></path><path d="M26,180.08222142857142h24v0.7142857142857224h-24Z" style="fill: #4c78a8;"></path><path d="M26,179.42507857142857h24v0.6571428571428442h-24Z" style="fill: #4c78a8;"></path><path d="M26,178.76793571428573h24v0.6571428571428442h-24Z" style="fill: #4c78a8;"></path><path d="M26,178.11079285714285h24v0.6571428571428726h-24Z" style="fill: #4c78a8;"></path><path d="M26,177.45193571428572h24v0.6571428571428442h-24Z" style="fill: #4c78a8;"></path><path d="M26,178.10907857142857h24v0.0017142857142857792h-24Z" style="fill: #4c78a8;"></path><path d="M26,176.79350714285715h24v0.6571428571428442h-24Z" style="fill: #4c78a8;"></path><path d="M26,177.45065h24v0.0012857142857285453h-24Z" style="fill: #4c78a8;"></path><path d="M26,176.79145h24v0.002057142857154304h-24Z" style="fill: #4c78a8;"></path><path d="M26,176.78859285714285h24v0.0028571428571524393h-24Z" style="fill: #4c78a8;"></path><path d="M26,176.78830714285715h24v0.00028571428569534874h-24Z" style="fill: #4c78a8;"></path><path d="M26,175.9311642857143h24v0.8571428571428612h-24Z" style="fill: #4c78a8;"></path><path d="M26,175.27402142857142h24v0.6571428571428726h-24Z" style="fill: #4c78a8;"></path><path d="M26,174.61687857142857h24v0.6571428571428442h-24Z" style="fill: #4c78a8;"></path><path d="M26,173.95865h24v0.6571428571428442h-24Z" style="fill: #4c78a8;"></path><path d="M26,174.61579285714285h24v0.001085714285721906h-24Z" style="fill: #4c78a8;"></path><path d="M26,173.38722142857142h24v0.5714285714285836h-24Z" style="fill: #4c78a8;"></path><path d="M26,172.81579285714287h24v0.5714285714285552h-24Z" style="fill: #4c78a8;"></path><path d="M26,172.81479285714286h24v0.0010000000000047748h-24Z" style="fill: #4c78a8;"></path><path d="M26,171.93622142857143h24v0.8785714285714334h-24Z" style="fill: #4c78a8;"></path><path d="M26,171.05765h24v0.8785714285714334h-24Z" style="fill: #4c78a8;"></path><path d="M26,170.17907857142856h24v0.8785714285714334h-24Z" style="fill: #4c78a8;"></path><path d="M26,169.52193571428572h24v0.6571428571428442h-24Z" style="fill: #4c78a8;"></path><path d="M26,168.86479285714285h24v0.6571428571428726h-24Z" style="fill: #4c78a8;"></path><path d="M26,168.20765h24v0.6571428571428442h-24Z" style="fill: #4c78a8;"></path><path d="M26,168.20665h24v0.0010000000000047748h-24Z" style="fill: #4c78a8;"></path><path d="M26,167.54950714285712h24v0.6571428571428726h-24Z" style="fill: #4c78a8;"></path><path d="M26,166.97807857142857h24v0.5714285714285552h-24Z" style="fill: #4c78a8;"></path><path d="M26,166.40665h24v0.5714285714285552h-24Z" style="fill: #4c78a8;"></path><path d="M26,165.74950714285714h24v0.6571428571428726h-24Z" style="fill: #4c78a8;"></path><path d="M26,165.09236428571427h24v0.6571428571428726h-24Z" style="fill: #4c78a8;"></path><path d="M26,164.5209357142857h24v0.5714285714285552h-24Z" style="fill: #4c78a8;"></path><path d="M26,164.5193642857143h24v0.001571428571423894h-24Z" style="fill: #4c78a8;"></path><path d="M26,163.86222142857142h24v0.6571428571428726h-24Z" style="fill: #4c78a8;"></path><path d="M26,161.0979357142857h24v0.5714285714285836h-24Z" style="fill: #4c78a8;"></path><path d="M26,162.98365h24v0.878571428571405h-24Z" style="fill: #4c78a8;"></path><path d="M26,160.52650714285716h24v0.5714285714285552h-24Z" style="fill: #4c78a8;"></path><path d="M26,162.32650714285714h24v0.6571428571428726h-24Z" style="fill: #4c78a8;"></path><path d="M26,161.6693642857143h24v0.6571428571428442h-24Z" style="fill: #4c78a8;"></path><path d="M26,159.95507857142857h24v0.5714285714285836h-24Z" style="fill: #4c78a8;"></path><path d="M26,159.2979357142857h24v0.6571428571428726h-24Z" style="fill: #4c78a8;"></path><path d="M26,158.7260214285714h24v0.00048571428573040976h-24Z" style="fill: #4c78a8;"></path><path d="M26,158.72650714285714h24v0.5714285714285552h-24Z" style="fill: #4c78a8;"></path><path d="M26,158.72445h24v0.001571428571423894h-24Z" style="fill: #4c78a8;"></path><path d="M26,157.84587857142856h24v0.8785714285714334h-24Z" style="fill: #4c78a8;"></path><path d="M26,157.1887357142857h24v0.6571428571428442h-24Z" style="fill: #4c78a8;"></path><path d="M26,156.31016428571428h24v0.8785714285714334h-24Z" style="fill: #4c78a8;"></path><path d="M26,155.73873571428572h24v0.5714285714285552h-24Z" style="fill: #4c78a8;"></path><path d="M26,154.88159285714286h24v0.8571428571428612h-24Z" style="fill: #4c78a8;"></path><path d="M26,152.34587857142856h24v0.4285714285714448h-24Z" style="fill: #4c78a8;"></path><path d="M26,154.00302142857143h24v0.8785714285714334h-24Z" style="fill: #4c78a8;"></path><path d="M26,153.34587857142856h24v0.6571428571428726h-24Z" style="fill: #4c78a8;"></path><path d="M26,152.77445h24v0.5714285714285552h-24Z" style="fill: #4c78a8;"></path><path d="M26,151.48873571428572h24v0.8571428571428328h-24Z" style="fill: #4c78a8;"></path><path d="M26,150.91730714285714h24v0.5714285714285836h-24Z" style="fill: #4c78a8;"></path><path d="M26,147.54487857142857h24v0.5714285714285552h-24Z" style="fill: #4c78a8;"></path><path d="M26,146.97344999999999h24v0.5714285714285836h-24Z" style="fill: #4c78a8;"></path><path d="M26,146.40202142857143h24v0.5714285714285552h-24Z" style="fill: #4c78a8;"></path><path d="M26,148.11630714285712h24v0.6571428571428726h-24Z" style="fill: #4c78a8;"></path><path d="M26,150.2020214285714h24v0.7142857142857224h-24Z" style="fill: #4c78a8;"></path><path d="M26,149.4877357142857h24v0.7142857142857224h-24Z" style="fill: #4c78a8;"></path><path d="M26,148.77345h24v0.714285714285694h-24Z" style="fill: #4c78a8;"></path><path d="M26,145.83059285714285h24v0.5714285714285836h-24Z" style="fill: #4c78a8;"></path><path d="M26,150.91630714285714h24v0.0010000000000047748h-24Z" style="fill: #4c78a8;"></path><path d="M26,145.2591642857143h24v0.5714285714285552h-24Z" style="fill: #4c78a8;"></path><path d="M26,144.60202142857142h24v0.6571428571428726h-24Z" style="fill: #4c78a8;"></path><path d="M26,143.37345h24v0.5714285714285836h-24Z" style="fill: #4c78a8;"></path><path d="M26,143.94487857142857h24v0.6571428571428442h-24Z" style="fill: #4c78a8;"></path><path d="M26,142.80202142857144h24v0.5714285714285552h-24Z" style="fill: #4c78a8;"></path><path d="M26,141.94487857142857h24v0.8571428571428612h-24Z" style="fill: #4c78a8;"></path><path d="M26,141.06488714285715h24v0.8785714285714334h-24Z" style="fill: #4c78a8;"></path><path d="M26,140.1863157142857h24v0.8785714285714334h-24Z" style="fill: #4c78a8;"></path><path d="M26,141.94345857142858h24v0.00141999999999598h-24Z" style="fill: #4c78a8;"></path><path d="M26,138.95774428571428h24v0.5714285714285552h-24Z" style="fill: #4c78a8;"></path><path d="M26,139.52917285714284h24v0.6571428571428726h-24Z" style="fill: #4c78a8;"></path><path d="M26,138.95617285714286h24v0.001571428571423894h-24Z" style="fill: #4c78a8;"></path><path d="M26,138.95465857142858h24v0.00151428571427914h-24Z" style="fill: #4c78a8;"></path><path d="M26,138.2975157142857h24v0.6571428571428726h-24Z" style="fill: #4c78a8;"></path><path d="M26,137.64037285714286h24v0.6571428571428442h-24Z" style="fill: #4c78a8;"></path><path d="M26,137.06894428571428h24v0.5714285714285836h-24Z" style="fill: #4c78a8;"></path><path d="M26,137.06708714285713h24v0.0018571428571476645h-24Z" style="fill: #4c78a8;"></path><path d="M26,136.8385157142857h24v0.22857142857142776h-24Z" style="fill: #4c78a8;"></path><path d="M26,136.8380957142857h24v0.0004199999999912052h-24Z" style="fill: #4c78a8;"></path><path d="M26,135.60952428571426h24v0.571428571428612h-24Z" style="fill: #4c78a8;"></path><path d="M26,136.18095285714287h24v0.6571428571428442h-24Z" style="fill: #4c78a8;"></path><path d="M26,134.9523814285714h24v0.6571428571428442h-24Z" style="fill: #4c78a8;"></path><path d="M26,134.29523857142857h24v0.6571428571428442h-24Z" style="fill: #4c78a8;"></path><path d="M26,133.63809571428573h24v0.6571428571428442h-24Z" style="fill: #4c78a8;"></path><path d="M26,132.98095285714285h24v0.6571428571428726h-24Z" style="fill: #4c78a8;"></path><path d="M26,132.32380999999998h24v0.6571428571428726h-24Z" style="fill: #4c78a8;"></path><path d="M26,131.66481h24v0.6571428571428726h-24Z" style="fill: #4c78a8;"></path><path d="M26,132.32195285714286h24v0.0018571428571192428h-24Z" style="fill: #4c78a8;"></path><path d="M26,131.00766714285714h24v0.6571428571428442h-24Z" style="fill: #4c78a8;"></path><path d="M26,130.34895285714285h24v0.6571428571428726h-24Z" style="fill: #4c78a8;"></path><path d="M26,131.00609571428572h24v0.001571428571423894h-24Z" style="fill: #4c78a8;"></path><path d="M26,129.69180999999998h24v0.6571428571428726h-24Z" style="fill: #4c78a8;"></path><path d="M26,129.03466714285713h24v0.6571428571428442h-24Z" style="fill: #4c78a8;"></path><path d="M26,129.03366714285715h24v0.0009999999999763531h-24Z" style="fill: #4c78a8;"></path><path d="M26,129.03323857142857h24v0.00042857142858565567h-24Z" style="fill: #4c78a8;"></path><path d="M26,128.37609571428573h24v0.6571428571428442h-24Z" style="fill: #4c78a8;"></path><path d="M26,128.37552428571428h24v0.0005714285714475409h-24Z" style="fill: #4c78a8;"></path><path d="M26,128.37421h24v0.0013142857142725006h-24Z" style="fill: #4c78a8;"></path><path d="M26,128.37356714285715h24v0.0006428571428500618h-24Z" style="fill: #4c78a8;"></path><path d="M26,127.70528142857142h24v0.6682857142857301h-24Z" style="fill: #4c78a8;"></path><path d="M26,127.04813857142857h24v0.6571428571428584h-24Z" style="fill: #4c78a8;"></path><path d="M26,126.39099571428571h24v0.6571428571428584h-24Z" style="fill: #4c78a8;"></path><path d="M26,125.73385285714286h24v0.6571428571428442h-24Z" style="fill: #4c78a8;"></path><path d="M26,125.07670999999999h24v0.6571428571428726h-24Z" style="fill: #4c78a8;"></path><path d="M26,124.41956714285713h24v0.6571428571428584h-24Z" style="fill: #4c78a8;"></path><path d="M26,124.41856714285714h24v0.000999999999990564h-24Z" style="fill: #4c78a8;"></path><path d="M26,124.41725285714286h24v0.0013142857142867115h-24Z" style="fill: #4c78a8;"></path><path d="M26,123.76011h24v0.6571428571428584h-24Z" style="fill: #4c78a8;"></path><path d="M26,123.75425857142858h24v0.005851428571418182h-24Z" style="fill: #4c78a8;"></path><path d="M26,123.03997285714287h24v0.7142857142857082h-24Z" style="fill: #4c78a8;"></path><path d="M26,122.81140142857143h24v0.22857142857144197h-24Z" style="fill: #4c78a8;"></path><path d="M26,122.58283000000002h24v0.22857142857141355h-24Z" style="fill: #4c78a8;"></path><path d="M26,122.01140142857143h24v0.5714285714285836h-24Z" style="fill: #4c78a8;"></path><path d="M26,121.29711571428572h24v0.7142857142857082h-24Z" style="fill: #4c78a8;"></path><path d="M26,120.63997285714287h24v0.6571428571428584h-24Z" style="fill: #4c78a8;"></path><path d="M26,120.63825857142858h24v0.0017142857142857792h-24Z" style="fill: #4c78a8;"></path><path d="M26,119.98111571428572h24v0.6571428571428584h-24Z" style="fill: #4c78a8;"></path><path d="M26,119.32397285714286h24v0.6571428571428584h-24Z" style="fill: #4c78a8;"></path><path d="M26,119.32240142857144h24v0.001571428571423894h-24Z" style="fill: #4c78a8;"></path><path d="M26,119.32083000000002h24v0.001571428571423894h-24Z" style="fill: #4c78a8;"></path><path d="M26,118.60654428571429h24v0.7142857142857224h-24Z" style="fill: #4c78a8;"></path><path d="M26,118.60433000000002h24v0.0009000000000014552h-24Z" style="fill: #4c78a8;"></path><path d="M26,118.60523000000002h24v0.0013142857142725006h-24Z" style="fill: #4c78a8;"></path><path d="M26,118.03290142857144h24v0.5714285714285836h-24Z" style="fill: #4c78a8;"></path><path d="M26,117.46147285714287h24v0.5714285714285694h-24Z" style="fill: #4c78a8;"></path><path d="M1,199.28571428571428h24v0.7142857142857224h-24Z" style="fill: #4c78a8;"></path><path d="M1,198.62857142857143h24v0.6571428571428442h-24Z" style="fill: #4c78a8;"></path><path d="M1,197.97142857142856h24v0.6571428571428726h-24Z" style="fill: #4c78a8;"></path><path d="M1,197.97114285714287h24v0.00028571428569534874h-24Z" style="fill: #4c78a8;"></path><path d="M1,197.39971428571428h24v0.5714285714285836h-24Z" style="fill: #4c78a8;"></path><path d="M1,196.82828571428573h24v0.5714285714285552h-24Z" style="fill: #4c78a8;"></path><path d="M1,196.25685714285714h24v0.5714285714285836h-24Z" style="fill: #4c78a8;"></path><path d="M1,195.68542857142856h24v0.5714285714285836h-24Z" style="fill: #4c78a8;"></path><path d="M1,195.114h24v0.5714285714285552h-24Z" style="fill: #4c78a8;"></path><path d="M1,194.54257142857142h24v0.5714285714285836h-24Z" style="fill: #4c78a8;"></path><path d="M1,193.97114285714287h24v0.5714285714285552h-24Z" style="fill: #4c78a8;"></path><path d="M1,193.97085714285714h24v0.00028571428572377044h-24Z" style="fill: #4c78a8;"></path><path d="M1,193.3137142857143h24v0.6571428571428442h-24Z" style="fill: #4c78a8;"></path><path d="M1,192.65657142857143h24v0.6571428571428726h-24Z" style="fill: #4c78a8;"></path><path d="M1,192.65457142857142h24v0.0020000000000095497h-24Z" style="fill: #4c78a8;"></path><path d="M1,191.69171428571428h24v0.962857142857132h-24Z" style="fill: #4c78a8;"></path><path d="M1,191.12028571428573h24v0.5714285714285552h-24Z" style="fill: #4c78a8;"></path><path d="M1,190.54885714285714h24v0.5714285714285836h-24Z" style="fill: #4c78a8;"></path><path d="M1,189.97742857142856h24v0.5714285714285836h-24Z" style="fill: #4c78a8;"></path><path d="M1,189.406h24v0.5714285714285552h-24Z" style="fill: #4c78a8;"></path><path d="M1,188.83457142857142h24v0.5714285714285836h-24Z" style="fill: #4c78a8;"></path><path d="M1,188.26314285714287h24v0.5714285714285552h-24Z" style="fill: #4c78a8;"></path><path d="M1,187.69171428571428h24v0.5714285714285836h-24Z" style="fill: #4c78a8;"></path><path d="M1,187.12028571428573h24v0.5714285714285552h-24Z" style="fill: #4c78a8;"></path><path d="M1,186.54885714285714h24v0.5714285714285836h-24Z" style="fill: #4c78a8;"></path><path d="M1,186.54777142857142h24v0.001085714285721906h-24Z" style="fill: #4c78a8;"></path><path d="M1,185.89062857142858h24v0.6571428571428442h-24Z" style="fill: #4c78a8;"></path><path d="M1,185.2334857142857h24v0.6571428571428726h-24Z" style="fill: #4c78a8;"></path><path d="M1,184.57634285714286h24v0.6571428571428442h-24Z" style="fill: #4c78a8;"></path><path d="M1,184.00491428571428h24v0.5714285714285836h-24Z" style="fill: #4c78a8;"></path><path d="M1,183.43348571428572h24v0.5714285714285552h-24Z" style="fill: #4c78a8;"></path><path d="M1,182.86205714285714h24v0.5714285714285836h-24Z" style="fill: #4c78a8;"></path><path d="M1,182.86097142857142h24v0.001085714285721906h-24Z" style="fill: #4c78a8;"></path><path d="M1,182.28954285714286h24v0.5714285714285552h-24Z" style="fill: #4c78a8;"></path><path d="M1,181.71811428571428h24v0.5714285714285836h-24Z" style="fill: #4c78a8;"></path><path d="M1,181.14668571428572h24v0.5714285714285552h-24Z" style="fill: #4c78a8;"></path><path d="M1,181.1381142857143h24v0.008571428571428896h-24Z" style="fill: #4c78a8;"></path></g><g class="mark-group role-axis"><g transform="translate(0.5,200.5)"><path class="background" d="M0,0h0v0h0Z" style="pointer-events: none; fill: none;"></path><g><g class="mark-rule role-axis-tick" style="pointer-events: none;"><line transform="translate(6,0)" x2="0" y2="10" style="fill: none; stroke: #979797; stroke-width: 0.2; opacity: 1;"></line><line transform="translate(22,0)" x2="0" y2="10" style="fill: none; stroke: #979797; stroke-width: 0.2; opacity: 1;"></line><line transform="translate(38,0)" x2="0" y2="10" style="fill: none; stroke: #979797; stroke-width: 0.2; opacity: 1;"></line><line transform="translate(53,0)" x2="0" y2="10" style="fill: none; stroke: #979797; stroke-width: 0.2; opacity: 1;"></line><line transform="translate(69,0)" x2="0" y2="10" style="fill: none; stroke: #979797; stroke-width: 0.2; opacity: 1;"></line><line transform="translate(85,0)" x2="0" y2="10" style="fill: none; stroke: #979797; stroke-width: 0.2; opacity: 1;"></line><line transform="translate(101,0)" x2="0" y2="10" style="fill: none; stroke: #979797; stroke-width: 0.2; opacity: 1;"></line><line transform="translate(117,0)" x2="0" y2="10" style="fill: none; stroke: #979797; stroke-width: 0.2; opacity: 1;"></line><line transform="translate(132,0)" x2="0" y2="10" style="fill: none; stroke: #979797; stroke-width: 0.2; opacity: 1;"></line><line transform="translate(148,0)" x2="0" y2="10" style="fill: none; stroke: #979797; stroke-width: 0.2; opacity: 1;"></line><line transform="translate(164,0)" x2="0" y2="10" style="fill: none; stroke: #979797; stroke-width: 0.2; opacity: 1;"></line><line transform="translate(180,0)" x2="0" y2="10" style="fill: none; stroke: #979797; stroke-width: 0.2; opacity: 1;"></line><line transform="translate(195,0)" x2="0" y2="10" style="fill: none; stroke: #979797; stroke-width: 0.2; opacity: 1;"></line></g><g class="mark-text role-axis-label" style="pointer-events: none;"><text text-anchor="middle" transform="translate(6.1502,20)" style="font-family: sans-serif; font-size: 10px; fill: #979797; opacity: 1;">2010</text><text text-anchor="middle" transform="translate(21.9182,20)" style="font-family: sans-serif; font-size: 10px; fill: #979797; opacity: 0;">2011</text><text text-anchor="middle" transform="translate(37.6862,20)" style="font-family: sans-serif; font-size: 10px; fill: #979797; opacity: 1;">2012</text><text text-anchor="middle" transform="translate(53.49739999999999,20)" style="font-family: sans-serif; font-size: 10px; fill: #979797; opacity: 0;">2013</text><text text-anchor="middle" transform="translate(69.2654,20)" style="font-family: sans-serif; font-size: 10px; fill: #979797; opacity: 1;">2014</text><text text-anchor="middle" transform="translate(85.0334,20)" style="font-family: sans-serif; font-size: 10px; fill: #979797; opacity: 0;">2015</text><text text-anchor="middle" transform="translate(100.8014,20)" style="font-family: sans-serif; font-size: 10px; fill: #979797; opacity: 1;">2016</text><text text-anchor="middle" transform="translate(116.6126,20)" style="font-family: sans-serif; font-size: 10px; fill: #979797; opacity: 0;">2017</text><text text-anchor="middle" transform="translate(132.38060000000002,20)" style="font-family: sans-serif; font-size: 10px; fill: #979797; opacity: 1;">2018</text><text text-anchor="middle" transform="translate(148.14860000000002,20)" style="font-family: sans-serif; font-size: 10px; fill: #979797; opacity: 0;">2019</text><text text-anchor="middle" transform="translate(163.9166,20)" style="font-family: sans-serif; font-size: 10px; fill: #979797; opacity: 1;">2020</text><text text-anchor="middle" transform="translate(179.7278,20)" style="font-family: sans-serif; font-size: 10px; fill: #979797; opacity: 0;">2021</text><text text-anchor="middle" transform="translate(195.4958,20)" style="font-family: sans-serif; font-size: 10px; fill: #979797; opacity: 1;">2022</text></g><g class="mark-rule role-axis-domain" style="pointer-events: none;"><line transform="translate(0,0)" x2="200" y2="0" style="fill: none; stroke: #979797; stroke-width: 0.5; opacity: 1;"></line></g><g class="mark-text role-axis-title" style="pointer-events: none;"><text text-anchor="middle" transform="translate(100,36)" style="font-family: sans-serif; font-size: 11px; font-weight: bold; fill: #979797; opacity: 1;">Inbetriebnahmedatum (binned)</text></g></g></g></g><g class="mark-group role-axis"><g transform="translate(0.5,0.5)"><path class="background" d="M0,0h0v0h0Z" style="pointer-events: none; fill: none;"></path><g><g class="mark-rule role-axis-tick" style="pointer-events: none;"><line transform="translate(0,200)" x2="0" y2="0" style="fill: none; stroke: #979797; stroke-width: 0.2; opacity: 1;"></line><line transform="translate(0,171)" x2="0" y2="0" style="fill: none; stroke: #979797; stroke-width: 0.2; opacity: 1;"></line><line transform="translate(0,143)" x2="0" y2="0" style="fill: none; stroke: #979797; stroke-width: 0.2; opacity: 1;"></line><line transform="translate(0,114)" x2="0" y2="0" style="fill: none; stroke: #979797; stroke-width: 0.2; opacity: 1;"></line><line transform="translate(0,86)" x2="0" y2="0" style="fill: none; stroke: #979797; stroke-width: 0.2; opacity: 1;"></line><line transform="translate(0,57)" x2="0" y2="0" style="fill: none; stroke: #979797; stroke-width: 0.2; opacity: 1;"></line><line transform="translate(0,29)" x2="0" y2="0" style="fill: none; stroke: #979797; stroke-width: 0.2; opacity: 1;"></line><line transform="translate(0,0)" x2="0" y2="0" style="fill: none; stroke: #979797; stroke-width: 0.2; opacity: 1;"></line></g><g class="mark-text role-axis-label" style="pointer-events: none;"><text text-anchor="end" transform="translate(-2,203)" style="font-family: sans-serif; font-size: 10px; fill: #979797; opacity: 1;">0</text><text text-anchor="end" transform="translate(-2,174.42857142857144)" style="font-family: sans-serif; font-size: 10px; fill: #979797; opacity: 1;">100,000</text><text text-anchor="end" transform="translate(-2,145.85714285714286)" style="font-family: sans-serif; font-size: 10px; fill: #979797; opacity: 1;">200,000</text><text text-anchor="end" transform="translate(-2,117.28571428571429)" style="font-family: sans-serif; font-size: 10px; fill: #979797; opacity: 1;">300,000</text><text text-anchor="end" transform="translate(-2,88.71428571428572)" style="font-family: sans-serif; font-size: 10px; fill: #979797; opacity: 1;">400,000</text><text text-anchor="end" transform="translate(-2,60.14285714285714)" style="font-family: sans-serif; font-size: 10px; fill: #979797; opacity: 1;">500,000</text><text text-anchor="end" transform="translate(-2,31.571428571428584)" style="font-family: sans-serif; font-size: 10px; fill: #979797; opacity: 1;">600,000</text><text text-anchor="end" transform="translate(-2,3)" style="font-family: sans-serif; font-size: 10px; fill: #979797; opacity: 1;">700,000</text></g><g class="mark-text role-axis-title" style="pointer-events: none;"><text text-anchor="middle" transform="translate(-43.1474609375,100) rotate(-90) translate(0,-2)" style="font-family: sans-serif; font-size: 11px; font-weight: bold; fill: #979797; opacity: 1;">Nettonennleistung</text></g></g></g></g></g></g></g></g></svg>

